<svg width="42" height="42" viewBox="0 0 42 42" fill="none" xmlns="http://www.w3.org/2000/svg">
<rect y="0.5" width="42" height="41" rx="20.5" fill="#0050DC"/>
<path d="M21.5 20.5H27C27.2761 20.5 27.5 20.7239 27.5 21C27.5 21.2761 27.2761 21.5 27 21.5H21.5V27C21.5 27.2761 21.2761 27.5 21 27.5C20.7239 27.5 20.5 27.2761 20.5 27V21.5H15C14.7239 21.5 14.5 21.2761 14.5 21C14.5 20.7239 14.7239 20.5 15 20.5H20.5V15C20.5 14.7239 20.7239 14.5 21 14.5C21.2761 14.5 21.5 14.7239 21.5 15V20.5Z" fill="white" stroke="white"/>
</svg>
