<svg width="24" height="24" viewBox="0 0 24 24" fill="none" xmlns="http://www.w3.org/2000/svg">
<g clip-path="url(#clip0_678_20075)">
<g clip-path="url(#clip1_678_20075)">
<path d="M5.05911 18.3212H9.38266C9.51686 18.322 9.64989 18.2962 9.77413 18.2455C9.89837 18.1947 10.0114 18.12 10.1066 18.0255L17.163 10.9589L20.059 8.12414C20.1545 8.02934 20.2304 7.91656 20.2822 7.7923C20.3339 7.66804 20.3606 7.53476 20.3606 7.40015C20.3606 7.26554 20.3339 7.13226 20.2822 7.00799C20.2304 6.88373 20.1545 6.77095 20.059 6.67616L15.7354 2.30163C15.6406 2.20605 15.5278 2.13019 15.4036 2.07842C15.2793 2.02665 15.146 2 15.0114 2C14.8768 2 14.7435 2.02665 14.6193 2.07842C14.495 2.13019 14.3822 2.20605 14.2874 2.30163L11.4119 5.18739L4.33512 12.2539C4.24062 12.3492 4.16585 12.4622 4.1151 12.5865C4.06435 12.7107 4.03863 12.8437 4.03941 12.9779V17.3015C4.03941 17.5719 4.14684 17.8313 4.33807 18.0225C4.5293 18.2138 4.78867 18.3212 5.05911 18.3212ZM15.0114 4.4634L17.8972 7.34916L16.4492 8.79714L13.5634 5.91138L15.0114 4.4634ZM6.07882 13.396L12.1257 7.34916L15.0114 10.2349L8.96458 16.2818H6.07882V13.396ZM21.3744 20.3606H3.0197C2.74926 20.3606 2.4899 20.468 2.29866 20.6593C2.10743 20.8505 2 21.1099 2 21.3803C2 21.6507 2.10743 21.9101 2.29866 22.1013C2.4899 22.2926 2.74926 22.4 3.0197 22.4H21.3744C21.6448 22.4 21.9042 22.2926 22.0954 22.1013C22.2867 21.9101 22.3941 21.6507 22.3941 21.3803C22.3941 21.1099 22.2867 20.8505 22.0954 20.6593C21.9042 20.468 21.6448 20.3606 21.3744 20.3606Z" fill="#8C8C99"/>
</g>
</g>
<defs>
<clipPath id="clip0_678_20075">
<rect width="24" height="24" fill="white"/>
</clipPath>
<clipPath id="clip1_678_20075">
<rect width="24" height="24" fill="white"/>
</clipPath>
</defs>
</svg>
