<svg width="103" height="26" viewBox="0 0 103 26" fill="none" xmlns="http://www.w3.org/2000/svg">
<path d="M25.7435 22.8507V3.54899C25.7435 1.97518 24.4673 0.700684 22.8952 0.700684H3.59343C2.01962 0.700684 0.745117 1.97683 0.745117 3.54899C0.745117 3.82527 0.8553 4.09169 1.051 4.28738L4.19039 7.42677C4.43213 7.66852 4.82353 7.66852 5.06527 7.42677L9.53344 2.95861C10.3097 2.18239 11.5661 2.18239 12.3423 2.95861C13.0938 3.71015 13.1152 4.91394 12.4097 5.69345C12.385 5.71647 12.3587 5.7362 12.3357 5.76087L7.42845 10.6681L3.17901 14.9176C3.13132 14.9653 3.08692 15.0146 3.0458 15.0656C2.40773 15.8451 2.45213 16.9979 3.17901 17.7264C3.90753 18.4549 5.06034 18.4993 5.83984 17.8596C5.89082 17.8185 5.94016 17.7741 5.98785 17.7264L10.2373 13.477L12.5051 11.2092C13.2846 10.5711 14.4374 10.6155 15.1659 11.3424C15.8944 12.0709 15.9388 13.2237 15.2991 14.0032L13.0313 16.271L8.78189 20.5204C8.7342 20.5681 8.6898 20.6175 8.64868 20.6685C8.01061 21.448 8.05501 22.6008 8.78189 23.3293C9.51041 24.0578 10.6632 24.1022 11.4427 23.4625C11.4937 23.4214 11.543 23.377 11.5907 23.3293L15.8402 19.0798L20.7474 14.1726C20.7704 14.1496 20.7918 14.1233 20.8148 14.0986C21.6174 13.3717 22.8705 13.4161 23.6155 14.2351C24.3374 15.0294 24.2519 16.271 23.4938 17.0308L19.0815 21.443C18.8398 21.6848 18.8398 22.0762 19.0815 22.3179L22.1584 25.3948C22.3541 25.5905 22.6189 25.7007 22.8968 25.7007C24.469 25.699 25.7435 24.4245 25.7435 22.8507Z" fill="white"/>
<path d="M37.6952 8.75879C34.6068 8.75879 31.7437 11.3193 31.7437 15.1872C31.7437 19.3298 34.6808 21.7406 37.9961 21.7406C40.9332 21.7406 42.8672 20.009 43.5201 17.8744L41.0599 17.0965C40.6586 18.3019 39.7541 19.2311 37.9961 19.2311C36.1888 19.2311 34.7317 17.9007 34.6561 16.0424H43.5957C43.6204 15.9914 43.6714 15.5901 43.6714 15.1132C43.6714 11.2437 41.4628 8.75879 37.6952 8.75879ZM34.7334 13.9061C34.8337 12.6004 35.8878 11.1943 37.7215 11.1943C39.7311 11.1943 40.6849 12.4754 40.7342 13.9061H34.7334Z" fill="white"/>
<path d="M60.3404 8.75879C58.7304 8.75879 57.275 9.32121 56.3048 10.9559C55.6404 9.50047 54.2096 8.75879 52.575 8.75879C51.1706 8.75879 49.6116 9.42317 48.8962 10.6993V9.11565H46.061V21.5565H48.9981V14.1742C48.9981 12.5905 49.9947 11.4147 51.5784 11.4147C53.264 11.4147 53.9794 12.5379 53.9794 13.9686V21.5548H56.8918V14.1725C56.8918 12.6399 57.9131 11.413 59.4721 11.413C61.1331 11.413 61.8731 12.5116 61.8731 13.967V21.5532H64.7346V13.4802C64.7346 10.1879 62.5885 8.75879 60.3404 8.75879Z" fill="white"/>
<path d="M68.7306 4.66064C67.6831 4.66064 66.8164 5.52895 66.8164 6.60118C66.8164 7.6734 67.6847 8.5154 68.7306 8.5154C69.8029 8.5154 70.6712 7.6734 70.6712 6.60118C70.6695 5.52895 69.8029 4.66064 68.7306 4.66064Z" fill="white"/>
<path d="M70.2105 9.11572H67.2734V21.5565H70.2105V9.11572Z" fill="white"/>
<path d="M102.657 15.1101C102.657 11.2438 100.447 8.75732 96.681 8.75732C93.5926 8.75732 90.7295 11.3178 90.7295 15.1858C90.7295 19.3283 93.6666 21.7392 96.982 21.7392C99.9191 21.7392 101.853 20.0075 102.506 17.8729L100.046 17.095C99.6444 18.3005 98.74 19.2296 96.982 19.2296C95.1746 19.2296 93.7176 17.8992 93.6419 16.0409H102.582C102.606 15.9899 102.657 15.5887 102.657 15.1101ZM93.7176 13.9063C93.8179 12.6006 94.872 11.1945 96.7057 11.1945C98.7153 11.1945 99.6691 12.4756 99.7184 13.9063H93.7176Z" fill="white"/>
<path d="M86.5326 17.5208V12.8027V11.7469H88.6129H89.1128V9.11569H88.6129H86.5326V4.91064H83.8504H83.5955V8.2704V9.11569H78.4481V4.91064H75.7659H75.511V8.2704V9.11569H72.7646V11.862H75.511V12.8027V14.4012V18.006C75.511 20.3297 76.9417 21.7094 79.2408 21.7094C80.313 21.7094 80.8754 21.5055 81.0547 21.4282V18.9762C80.9264 19.0025 80.4413 19.0782 80.0334 19.0782C78.9349 19.0782 78.4498 18.6177 78.4498 17.5208V12.8027V11.7469H83.5971V12.8027V14.4012V18.006C83.5971 20.3297 85.0278 21.7094 87.3269 21.7094C88.3991 21.7094 88.9615 21.5055 89.1408 21.4282V18.9762C89.0125 19.0025 88.5274 19.0782 88.1195 19.0782C87.0194 19.0782 86.5326 18.6177 86.5326 17.5208Z" fill="white"/>
</svg>
