<svg width="23" height="25" viewBox="0 0 23 25" fill="none" xmlns="http://www.w3.org/2000/svg">
<path fill-rule="evenodd" clip-rule="evenodd" d="M6.25975 2.86796C6.40898 3.16641 6.28801 3.52931 5.98956 3.67854C5.69112 3.82776 5.32821 3.70679 5.17899 3.40834L3.97065 0.991678C3.82143 0.693233 3.9424 0.330326 4.24085 0.181103C4.53929 0.0318807 4.9022 0.15285 5.05142 0.451295L6.25975 2.86796ZM3.3914 19.9947C4.27224 20.8755 5.69106 20.8905 6.59016 20.0396L8.61191 22.0613C8.8588 22.3082 9.1412 22.5168 9.44976 22.6802C11.16 23.5859 13.2807 22.9337 14.1865 21.2235L15.8777 18.0299L19.4473 14.4479C21.7515 12.1358 22.2232 8.68863 20.8637 5.91151L21.2633 5.51188C22.2071 4.56812 22.2071 3.03797 21.2633 2.0942C20.3196 1.15043 18.7894 1.15043 17.8456 2.0942L17.4456 2.49424C14.6698 1.13728 11.2244 1.61254 8.91761 3.91981L5.35649 7.48166L2.14237 9.21363C1.84247 9.37524 1.56773 9.57972 1.32684 9.82061C-0.041623 11.1891 -0.041623 13.4078 1.32684 14.7763L3.32111 16.7705C2.48052 17.6867 2.50584 19.1091 3.3914 19.9947ZM4.17719 17.6266L5.73504 19.1845C5.30851 19.5639 4.65472 19.5492 4.24582 19.1403C3.83176 18.7262 3.80805 18.0685 4.17719 17.6266ZM20.2237 4.84269L20.4089 4.65746C20.8808 4.18558 20.8808 3.4205 20.4089 2.94862C19.937 2.47674 19.1719 2.47674 18.7001 2.94862L18.5148 3.1339C18.8381 3.36642 19.147 3.62804 19.4377 3.91876C19.7288 4.20985 19.9908 4.51903 20.2237 4.84269ZM6.14835 8.39865L9.77212 4.77415C12.205 2.34074 16.15 2.34033 18.5838 4.7737C21.0189 7.20877 21.0223 11.1557 18.5914 13.595L14.9581 17.2409L14.8521 17.3846L13.1186 20.658C12.5252 21.7785 11.1358 22.2058 10.0153 21.6124C9.81311 21.5053 9.62808 21.3687 9.46633 21.2069L2.18126 13.9218C1.28468 13.0253 1.28468 11.5716 2.18126 10.675C2.33909 10.5172 2.51908 10.3832 2.71557 10.2774L6.0077 8.50335L6.14835 8.39865ZM3.84309 5.82501C3.99231 5.52657 3.87134 5.16366 3.5729 5.01444L1.15623 3.8061C0.857783 3.65688 0.494877 3.77785 0.345654 4.0763C0.196432 4.37474 0.3174 4.73765 0.615846 4.88687L3.03251 6.0952C3.33096 6.24443 3.69386 6.12346 3.84309 5.82501ZM18.7408 19.3869C18.4424 19.2376 18.3214 18.8747 18.4707 18.5763C18.6199 18.2778 18.9828 18.1569 19.2812 18.3061L21.6979 19.5144C21.9963 19.6637 22.1173 20.0266 21.9681 20.325C21.8189 20.6235 21.456 20.7444 21.1575 20.5952L18.7408 19.3869ZM16.3242 20.7228C16.0257 20.872 15.9048 21.2349 16.054 21.5333L17.2623 23.95C17.4115 24.2485 17.7745 24.3694 18.0729 24.2202C18.3713 24.071 18.4923 23.7081 18.3431 23.4096L17.1348 20.993C16.9855 20.6945 16.6226 20.5735 16.3242 20.7228Z" fill="white"/>
</svg>
