<svg width="179" height="190" viewBox="0 0 179 190" fill="none" xmlns="http://www.w3.org/2000/svg">
<path d="M109.369 74.5999L145.708 71.5231L143.629 101.376L112.03 103.455L109.369 74.5999Z" fill="white"/>
<path d="M145.043 72.1885L142.964 100.794L112.529 102.79L109.951 75.0989L145.043 72.1885ZM146.457 70.7748L108.787 74.0179L111.531 104.121L144.212 101.958L146.457 70.7748Z" fill="#1A1A33"/>
<path d="M123.256 96.9688C122.923 96.9688 122.674 96.7194 122.674 96.3867L121.593 87.9048L117.768 86.6574C117.435 86.5743 117.269 86.1585 117.352 85.909C117.435 85.5764 117.851 85.41 118.1 85.4932L122.591 86.99L123.755 96.2204C123.921 96.553 123.672 96.8856 123.256 96.9688C123.339 96.9688 123.339 96.9688 123.256 96.9688Z" fill="#1A1A33"/>
<path d="M107.373 22.0452C112.695 20.3821 128.245 16.3074 141.467 38.427C154.772 60.5467 146.373 79.5895 146.373 79.5895L106.541 77.5937C106.541 77.5937 105.294 55.1415 101.718 40.7554C100.97 37.6786 98.8909 24.7062 107.373 22.0452Z" fill="#1A1A33"/>
<path d="M77.27 73.4361C82.1763 76.3465 84.7541 83.6643 84.7541 83.6643L80.43 84.7454C80.43 84.7454 77.1869 80.7538 74.609 80.7538C72.0312 80.7538 77.27 73.4361 77.27 73.4361Z" fill="white"/>
<path d="M80.0974 85.4105L79.848 85.0779C79.0164 83.9968 76.3554 81.3358 74.526 81.3358C73.7776 81.3358 73.4449 80.92 73.3618 80.6706C72.5302 79.0906 75.4407 74.8496 76.7712 73.0202L77.1038 72.5212L77.6027 72.7707C82.5921 75.7643 85.2532 82.9989 85.3363 83.2484L85.5858 83.9137L80.0974 85.4105ZM74.4428 80.0885C74.4428 80.0885 74.526 80.0885 74.4428 80.0885C76.9375 80.0885 79.6817 82.9989 80.5964 83.9968L83.8395 83.1653C83.0911 81.419 80.929 76.679 77.3533 74.2675C75.607 76.9285 74.2765 79.5064 74.4428 80.0885Z" fill="#1A1A33"/>
<path d="M105.792 106.948H44.5061L43.0093 104.453L58.8921 94.8069L87.6643 77.2609L98.3915 94.8069L105.792 106.948Z" fill="white"/>
<path d="M87.4151 78.0923L97.976 95.472L104.628 106.282H44.9221L43.9242 104.619L58.3104 95.8047L87.4151 78.0923ZM87.8309 76.4292L57.6451 94.8068L42.178 104.287L44.1738 107.613H106.874L99.1402 94.8899L87.8309 76.4292Z" fill="#1A1A33"/>
<path d="M61.9695 100.961C61.7201 100.961 61.5538 100.878 61.4706 100.628C61.3043 100.296 61.3874 99.9629 61.7201 99.7966L84.1723 86.0758C84.5049 85.9095 84.8376 85.9927 85.0039 86.2421C85.1702 86.5748 85.0871 86.9074 84.7544 87.0737L62.3022 100.795C62.1359 100.961 62.0527 100.961 61.9695 100.961Z" fill="#1A1A33"/>
<path d="M65.9607 107.613C65.7113 107.613 65.545 107.53 65.4618 107.281C65.2955 106.948 65.3787 106.615 65.7113 106.449L88.1635 92.7283C88.4962 92.562 88.8288 92.6452 88.9951 92.8947C89.1614 93.2273 89.0783 93.5599 88.7456 93.7262L66.2934 107.447C66.2102 107.613 66.1271 107.613 65.9607 107.613Z" fill="#1A1A33"/>
<path d="M78.4345 74.2675C77.9356 72.7707 77.5198 70.6918 79.0998 68.2802C73.8609 67.615 68.7052 67.1161 63.4663 66.8666C60.3895 74.2675 61.3874 81.5022 62.8011 88.0715C65.2958 99.464 69.121 96.0545 69.121 96.0545C69.121 96.0545 71.283 97.5514 73.4451 94.9735C73.4451 94.9735 76.6051 96.9692 77.6861 94.0588C78.7672 91.1483 74.1104 86.741 75.6903 83.8305C76.1061 83.0821 76.6051 82.4169 77.104 81.7516" fill="white"/>
<path d="M67.7072 97.1354C67.4577 97.1354 67.2083 97.1353 66.8756 96.969C64.8799 96.3038 63.2999 93.3933 62.1357 88.1545C60.6389 81.3356 59.7242 74.0178 62.8009 66.6169L62.9673 66.2011H63.383C68.7882 66.4506 74.1103 67.0327 79.0996 67.6148L80.0975 67.698L79.5986 68.5295C78.1849 70.6916 78.5175 72.521 79.0165 74.0179C79.0996 74.3505 78.9333 74.6831 78.6007 74.8494C78.268 74.9326 77.9354 74.7663 77.7691 74.4336C77.2702 72.9368 76.8544 71.0242 78.0186 68.779C73.5281 68.1969 68.7051 67.6979 63.7988 67.4485C61.0547 74.4336 61.9694 81.3356 63.383 87.905C64.7136 94.0586 66.3767 95.4722 67.2914 95.8049C68.0398 96.0543 68.6219 95.5554 68.7051 95.5554L69.0377 95.2228L69.4535 95.4722C69.6198 95.5554 71.1998 96.5532 72.946 94.4743L73.2787 94.0586L73.7776 94.3081C74.1102 94.5575 75.2744 95.0564 76.106 94.807C76.5218 94.6407 76.8544 94.3081 77.1039 93.726C77.5197 92.5618 76.7713 90.9818 76.0228 89.3187C75.1081 87.3229 74.1102 85.1608 75.1081 83.4145C75.5239 82.583 76.106 81.9177 76.605 81.2525C76.8544 81.003 77.187 80.9198 77.5197 81.1693C77.7691 81.4188 77.8523 81.7514 77.6028 82.084C77.1038 82.6661 76.605 83.3314 76.1892 84.0798C75.5239 85.3271 76.3555 87.1566 77.1039 88.9029C77.9354 90.7323 78.767 92.6449 78.1849 94.2249C77.8523 95.1396 77.2702 95.8049 76.4386 96.0543C75.3576 96.387 74.1102 95.9711 73.5282 95.7217C71.865 97.3848 70.1187 97.2185 69.1209 96.8028C68.7882 96.9691 68.3724 97.1354 67.7072 97.1354Z" fill="#1A1A33"/>
<path d="M69.4536 85.0777C68.7884 88.1544 70.6178 90.7323 72.3641 93.0607C72.6967 93.4765 73.362 93.0607 73.0293 92.6449C71.3662 90.566 69.62 88.1545 70.202 85.244C70.4515 84.745 69.6199 84.5787 69.4536 85.0777Z" fill="#1A1A33"/>
<path d="M65.2126 87.6555C65.5452 90.3997 66.0442 93.227 68.5389 94.807C68.9547 95.0564 69.3704 94.308 68.9547 94.0585C66.7094 92.728 66.3768 89.9839 66.0442 87.6555C65.961 87.0734 65.1295 87.0734 65.2126 87.6555Z" fill="#1A1A33"/>
<path d="M60.3893 75.0158C60.3061 59.6319 66.2934 37.8449 81.6773 27.6998C101.635 14.4779 115.855 20.7147 115.855 20.7147V39.0091C115.855 39.0091 98.4749 31.7745 87.9141 48.8215C79.8479 61.794 82.592 70.858 82.592 70.858L60.3893 75.0158Z" fill="#1A1A33"/>
<path d="M101.552 38.2605C101.219 38.2605 100.97 38.0111 100.97 37.6784L100.388 32.8554C100.305 32.5227 100.554 32.1901 100.97 32.1901C101.302 32.1901 101.635 32.3564 101.635 32.7722L102.217 37.5953C102.217 37.9279 101.968 38.2605 101.552 38.2605C101.552 38.2605 101.635 38.2605 101.552 38.2605Z" fill="white"/>
<path d="M28.8736 42.4182L8.50024 55.058L33.9462 107.53L54.3195 94.9731L28.8736 42.4182Z" fill="#00D37F"/>
<path d="M89.5773 69.2784C89.2447 69.2784 88.9952 69.029 88.912 68.6963L88.8289 62.7091C88.8289 62.3765 89.0783 62.0438 89.411 62.0438C89.7436 62.0438 90.0762 62.2933 90.0762 62.6259L90.1594 68.6132C90.2425 68.9458 89.9931 69.2784 89.5773 69.2784C89.5773 69.2784 89.6604 69.2784 89.5773 69.2784Z" fill="#00D37F"/>
<path d="M93.2364 71.7728C93.1532 71.7728 93.07 71.7728 92.9869 71.6896C92.6542 71.5233 92.5711 71.1907 92.6543 70.8581L94.7332 66.3676C94.8995 66.035 95.2321 65.9518 95.5647 66.035C95.8974 66.2013 95.9805 66.5339 95.8973 66.8666L93.8184 71.357C93.7353 71.6064 93.4858 71.7728 93.2364 71.7728Z" fill="#00D37F"/>
<path d="M48.8302 70.7749C47.0008 70.7749 44.8387 70.1096 42.9261 67.8644C42.4272 67.1992 41.9282 66.5339 41.4293 65.8687C39.5167 63.0414 38.103 61.0456 33.3631 63.2908C33.0305 63.4571 32.6979 63.2908 32.5316 62.9582C32.3652 62.6256 32.5315 62.293 32.8642 62.1266C38.5188 59.4656 40.5146 62.3761 42.4272 65.1203C42.8429 65.7855 43.3419 66.4508 43.8408 67.0328C47.3334 71.1907 51.7407 68.8623 51.907 68.7792C52.2396 68.6129 52.5723 68.696 52.7386 69.0286C52.9049 69.3613 52.8217 69.6939 52.4891 69.8602C52.5723 69.8602 50.9923 70.7749 48.8302 70.7749Z" fill="#1A1A33"/>
<path d="M47.7497 75.0158C45.9202 75.0158 43.7581 74.3506 41.8455 72.1053C41.3466 71.4401 40.8477 70.7748 40.3487 70.1095C38.4361 67.2822 37.0225 65.2865 32.2825 67.5317C31.9499 67.698 31.6173 67.5317 31.451 67.1991C31.2847 66.8664 31.451 66.5338 31.7836 66.3675C37.4383 63.7065 39.434 66.5339 41.3466 69.3612C41.7624 70.0264 42.2614 70.6917 42.7603 71.2738C46.2529 75.4316 50.6602 73.1032 50.8265 73.02C51.1591 72.8537 51.4917 72.9369 51.6581 73.2695C51.8244 73.6021 51.7412 73.9347 51.4085 74.1011C51.4917 74.1011 49.8286 75.0158 47.7497 75.0158Z" fill="#1A1A33"/>
<path d="M39.6835 37.6787L37.6877 46.2438L45.7539 43.2502L39.6835 37.6787Z" fill="white"/>
<path d="M36.8562 47.2417L39.2678 36.5145L46.9182 43.4996L36.8562 47.2417ZM40.0162 38.8429L38.6025 45.2459L44.5898 43.0007L40.0162 38.8429Z" fill="#1A1A33"/>
<path d="M11.241 73.4784L6.3606 68.598L1.48021 73.4784L6.3606 78.3588L11.241 73.4784Z" fill="white"/>
<path d="M6.33767 79.1738L0.599854 73.436L6.33767 67.6982L12.0754 73.436L6.33767 79.1738ZM2.34612 73.436L6.33767 77.4275L10.3292 73.436L6.33767 69.4445L2.34612 73.436Z" fill="#1A1A33"/>
<path d="M91.4068 103.289C91.2405 103.289 91.1573 103.206 90.991 103.123L88.33 100.795C88.0805 100.545 87.9974 100.212 88.2468 99.8799C88.4963 99.6304 88.8289 99.5473 89.1615 99.7967L91.8225 102.125C92.072 102.375 92.1552 102.707 91.9057 103.04C91.7394 103.206 91.5731 103.289 91.4068 103.289Z" fill="#00D37F"/>
<path d="M52.24 56.306C52.1569 56.306 52.0737 56.306 51.9906 56.2228C51.658 56.0565 51.5748 55.7239 51.7411 55.3913L54.4853 49.8198C54.6516 49.4872 54.9842 49.404 55.3168 49.5703C55.6495 49.7366 55.7326 50.0693 55.5663 50.4019L52.8221 55.9734C52.739 56.2228 52.4895 56.306 52.24 56.306Z" fill="#00D37F"/>
<path d="M111.53 67.5321C111.364 67.5321 111.198 67.4489 111.115 67.3657C110.865 67.1163 110.865 66.7005 111.115 66.451L116.353 61.2121C116.603 60.9627 117.019 60.9627 117.268 61.2121C117.518 61.4616 117.518 61.8774 117.268 62.1269L112.029 67.3657C111.78 67.4489 111.697 67.5321 111.53 67.5321Z" fill="#00D37F"/>
<path d="M101.551 82.3336C101.219 82.3336 100.969 82.0841 100.969 81.7515L100.637 78.5915C100.637 78.2589 100.886 77.9263 101.219 77.9263C101.551 77.9263 101.884 78.1758 101.884 78.5084L102.217 81.6683C102.217 82.001 101.967 82.3336 101.551 82.3336Z" fill="#00D37F"/>
<path d="M120.013 74.0185L124.171 70.7754L125.002 76.43L120.013 74.0185Z" fill="white"/>
<path d="M135.313 107.53H34.0286V189.772H135.313V107.53Z" fill="#00D37F"/>
<path d="M155.437 177.049L135.313 189.855V107.53L155.437 94.8069V177.049Z" fill="#00D37F"/>
<path d="M135.313 185.863C134.981 185.863 134.648 185.614 134.648 185.198V113.268C134.648 112.935 134.898 112.602 135.313 112.602C135.729 112.602 135.979 112.852 135.979 113.268V185.198C135.979 185.614 135.729 185.863 135.313 185.863Z" fill="white"/>
<path d="M64.9628 107.53V107.696C64.9628 129.234 51.242 139.545 34.0286 140.127V107.613H64.9628V107.53Z" fill="#1A1A33"/>
<path d="M56.4809 135.803L49.4126 141.541L58.144 145.366L56.4809 135.803Z" fill="#1A1A33"/>
<path d="M123.339 125.741H73.6946V130.731H123.339V125.741Z" fill="white"/>
<path d="M103.464 140.127H94.8161C93.8182 140.127 93.0698 139.296 93.0698 138.381C93.0698 137.383 93.9014 136.635 94.8161 136.635H103.464C104.462 136.635 105.211 137.466 105.211 138.381C105.294 139.296 104.462 140.127 103.464 140.127Z" fill="#1A1A33"/>
<path d="M112.944 140.127H110.034C109.036 140.127 108.287 139.296 108.287 138.381C108.287 137.383 109.119 136.635 110.034 136.635H112.944C113.942 136.635 114.69 137.466 114.69 138.381C114.774 139.296 113.942 140.127 112.944 140.127Z" fill="#1A1A33"/>
<path d="M121.51 140.127H118.599C117.601 140.127 116.853 139.296 116.853 138.381C116.853 137.383 117.684 136.635 118.599 136.635H121.51C122.507 136.635 123.256 137.466 123.256 138.381C123.256 139.296 122.507 140.127 121.51 140.127Z" fill="#1A1A33"/>
<path d="M163.088 119.587H159.844V154.929H163.088V119.587Z" fill="#1A1A33"/>
<path d="M155.438 94.8075L144.211 101.959L135.397 107.614H34.0291L54.0697 94.8075H58.8928L43.0099 104.454L44.5068 106.948H105.793L98.3921 94.8075H155.438Z" fill="#1A1A33"/>
<path d="M106.126 106.948C112.196 103.206 120.429 101.294 130.574 101.294C133.567 101.294 136.727 101.46 140.054 101.793C141.051 101.876 141.883 102.042 142.631 102.208L135.147 106.948H106.126V106.948Z" fill="white"/>
<path d="M130.574 100.711V101.958C133.567 101.958 136.727 102.125 139.97 102.457C140.303 102.457 140.636 102.541 140.968 102.541L135.064 106.283H108.537C114.275 103.372 121.676 101.875 130.574 101.875V100.711ZM130.574 100.711C120.429 100.711 111.032 102.541 104.047 107.613H135.397L144.211 102.042C143.214 101.709 141.883 101.46 140.137 101.21C136.894 100.877 133.734 100.711 130.574 100.711Z" fill="#1A1A33"/>
<path d="M29.0398 86.7413H28.9566L18.8947 84.9118C18.562 84.8287 18.3126 84.4961 18.3958 84.1634C18.4789 83.8308 18.8115 83.5813 19.1441 83.6645L29.2061 85.4939C29.5387 85.5771 29.7882 85.9097 29.705 86.2424C29.6219 86.4918 29.3724 86.7413 29.0398 86.7413Z" fill="#1A1A33"/>
<path d="M23.1355 90.8161H23.0524C22.7198 90.7329 22.4703 90.4003 22.5535 90.0677L24.3829 80.0057C24.466 79.6731 24.7987 79.4236 25.1313 79.5068C25.4639 79.5899 25.7134 79.9226 25.6302 80.2552L23.8008 90.3171C23.6345 90.5666 23.385 90.8161 23.1355 90.8161Z" fill="#1A1A33"/>
<path d="M101.552 100.628C105.456 100.628 108.621 97.4634 108.621 93.5597C108.621 89.656 105.456 86.4914 101.552 86.4914C97.6487 86.4914 94.4841 89.656 94.4841 93.5597C94.4841 97.4634 97.6487 100.628 101.552 100.628Z" fill="white"/>
<path d="M101.552 101.293C97.3112 101.293 93.8186 97.8008 93.8186 93.5599C93.8186 89.3189 97.3112 85.8263 101.552 85.8263C105.793 85.8263 109.286 89.3189 109.286 93.5599C109.286 97.8008 105.793 101.293 101.552 101.293ZM101.552 87.0737C97.9765 87.0737 95.066 89.9841 95.066 93.5599C95.066 97.1356 97.9765 100.046 101.552 100.046C105.128 100.046 108.038 97.1356 108.038 93.5599C108.038 89.9841 105.128 87.0737 101.552 87.0737Z" fill="#1A1A33"/>
<path d="M45.6709 79.673L44.3403 94.8075L56.8138 89.1528L45.6709 79.673Z" fill="white"/>
<path d="M43.6753 95.8053L45.1721 78.4256L57.9782 89.3191L43.6753 95.8053ZM46.17 80.9203L45.089 93.8095L55.733 88.9865L46.17 80.9203Z" fill="#1A1A33"/>
<path d="M163.088 62.7087L143.047 75.4316L135.314 107.696L155.438 94.9734L163.088 62.7087Z" fill="#00D37F"/>
<path d="M137.642 106.782C137.475 106.782 137.226 106.698 137.143 106.532C136.976 106.283 137.06 105.867 137.309 105.701L152.776 95.8881C153.026 95.7218 153.441 95.805 153.608 96.0545C153.774 96.3039 153.691 96.7197 153.441 96.886L137.974 106.698C137.891 106.698 137.725 106.782 137.642 106.782Z" fill="white"/>
<path d="M117.186 19.8829C141.135 18.8851 163.421 25.7039 171.154 35.35C179.636 45.9109 175.312 66.7 164.917 72.1052C162.339 73.4357 159.429 73.7683 157.849 74.5167C153.026 76.7619 151.945 76.5125 150.365 75.2651C150.365 75.2651 146.373 77.7598 145.209 74.683C145.209 74.683 143.712 78.5914 140.885 77.5935C138.141 76.5956 141.467 68.8621 149.034 64.8706C156.602 60.8791 160.51 50.9003 156.269 44.913C151.945 38.9258 125.751 31.608 125.751 31.608L117.186 19.8829Z" fill="white"/>
<path d="M141.8 78.4252C141.467 78.4252 141.135 78.3421 140.719 78.2589C139.887 78.0095 139.388 77.2611 139.305 76.2632C139.056 73.1033 142.881 67.4486 148.785 64.3718C152.86 62.2098 156.02 58.1351 157.101 53.7278C157.849 50.5678 157.35 47.5742 155.77 45.329C151.612 39.5912 125.917 32.3566 125.584 32.2734L125.418 32.1903L115.938 19.301L117.102 19.2178C140.636 18.2199 163.504 24.8725 171.653 34.9344C175.811 40.1733 177.308 48.2395 175.561 56.5551C173.981 64.0392 170.156 70.0264 165.25 72.6043C163.67 73.4359 162.007 73.8516 160.593 74.2674C159.595 74.5169 158.764 74.7664 158.182 75.0159C153.608 77.1779 152.111 77.1779 150.365 75.9306C149.617 76.3463 147.87 77.0947 146.457 76.5958C146.041 76.4295 145.625 76.18 145.376 75.8474C144.627 77.1779 143.38 78.4252 141.8 78.4252ZM126.25 31.1092C128.911 31.8576 152.693 38.7596 156.851 44.5805C158.681 47.0752 159.18 50.4015 158.348 53.9773C157.267 58.7172 153.774 63.1245 149.367 65.4529C143.629 68.4465 140.386 73.6853 140.553 76.18C140.636 76.9284 140.968 77.0116 141.135 77.0948C143.297 77.8432 144.627 74.6 144.627 74.5169L145.209 73.0201L145.791 74.5169C145.958 75.099 146.29 75.4316 146.789 75.5148C147.87 75.8474 149.533 75.099 150.032 74.7664L150.448 74.5169L150.781 74.7664C152.028 75.7643 152.86 76.1801 157.6 73.9348C158.348 73.6022 159.18 73.3527 160.177 73.1033C161.591 72.6875 163.171 72.2717 164.585 71.5233C169.158 69.1117 172.817 63.4571 174.314 56.3888C175.977 48.4058 174.647 40.7554 170.655 35.766C162.922 26.1198 141.051 19.7999 118.35 20.4652L126.25 31.1092Z" fill="#1A1A33"/>
<path d="M156.352 44.9133C158.681 48.0733 158.598 52.4806 156.934 56.3889C162.34 58.3847 170.489 60.2973 175.728 62.7088C179.802 54.1437 179.886 41.5871 173.483 34.8514C161.009 21.9622 141.218 18.8022 117.269 19.8001L128.578 39.3418C128.495 39.3418 152.028 39.0092 156.352 44.9133Z" fill="#1A1A33"/>
<path d="M150.282 67.3656C148.12 68.8624 146.373 70.775 145.209 73.1034C144.96 73.6023 145.708 74.0181 145.958 73.5192C147.122 71.274 148.702 69.4445 150.781 68.114C151.113 67.7814 150.697 67.1161 150.282 67.3656Z" fill="#1A1A33"/>
<path d="M154.856 69.1117C153.109 70.3591 151.779 71.9391 150.781 73.8517C150.531 74.3506 151.28 74.7664 151.529 74.2675C152.444 72.5212 153.691 71.0244 155.271 69.8602C155.687 69.5275 155.271 68.8623 154.856 69.1117Z" fill="#1A1A33"/>
<path d="M140.136 40.6721C140.053 40.6721 140.053 40.6721 139.97 40.6721L136.561 39.591C136.228 39.5079 136.062 39.1753 136.145 38.8426C136.228 38.51 136.561 38.3437 136.893 38.4269L140.303 39.5079C140.635 39.591 140.802 39.9237 140.719 40.2563C140.635 40.5058 140.386 40.6721 140.136 40.6721Z" fill="#1A1A33"/>
<path d="M25.3809 145.949C25.2146 145.949 25.0483 145.865 24.9651 145.782L11.7433 132.56C11.4938 132.311 11.4938 131.895 11.7433 131.646C11.9927 131.396 12.4085 131.396 12.658 131.646L25.8799 144.867C26.1293 145.117 26.1293 145.533 25.8799 145.782C25.7135 145.948 25.5472 145.949 25.3809 145.949Z" fill="#1A1A33"/>
<path d="M12.159 145.949C11.9927 145.949 11.8264 145.865 11.7433 145.782C11.4938 145.533 11.4938 145.117 11.7433 144.867L24.9651 131.646C25.2146 131.396 25.6304 131.396 25.8799 131.646C26.1293 131.895 26.1293 132.311 25.8799 132.56L12.658 145.782C12.4916 145.948 12.3253 145.949 12.159 145.949Z" fill="#1A1A33"/>
<path d="M25.3808 157.341H12.1589C11.8263 157.341 11.4937 157.091 11.4937 156.675C11.4937 156.26 11.7432 156.01 12.1589 156.01H25.3808C25.7134 156.01 26.046 156.26 26.046 156.675C26.046 157.091 25.7134 157.341 25.3808 157.341Z" fill="#1A1A33"/>
<path d="M120.263 10.7356C120.014 10.1535 119.681 9.57137 119.265 8.98927C119.265 8.98927 119.265 8.98929 119.265 8.90614C115.44 3.41781 108.455 1.75468 103.549 5.16409C101.22 6.82722 99.8897 9.40508 99.557 12.2324C99.1412 15.3092 100.305 18.4691 101.553 21.2133C104.38 27.5332 110.783 30.3605 117.269 24.9553C118.683 23.7911 119.764 22.2943 120.512 20.548C123.007 20.0491 124.504 18.2197 124.753 15.9744C125.003 13.3966 123.09 10.4861 120.263 10.7356Z" fill="white"/>
<path d="M110.284 28.4481C109.619 28.4481 108.953 28.3649 108.288 28.1986C105.211 27.4502 102.467 25.0386 100.887 21.4629C99.723 18.885 98.3925 15.4756 98.8915 12.1494C99.3073 8.90626 100.804 6.24525 103.132 4.66528C105.461 3.0853 108.371 2.42005 111.282 3.00215C114.608 3.58424 117.685 5.66316 119.764 8.57364C120.096 9.07258 120.429 9.57154 120.678 10.1536C121.843 10.1536 122.924 10.6526 123.838 11.5673C125.003 12.7315 125.585 14.4778 125.335 16.1409C125.003 18.7188 123.339 20.6313 120.928 21.2134C120.18 22.8766 119.015 24.3734 117.602 25.5376C115.19 27.4502 112.695 28.4481 110.284 28.4481ZM109.203 4.00003C107.29 4.00003 105.378 4.58213 103.798 5.66316C101.719 7.07682 100.471 9.40521 100.056 12.3157C99.6399 15.3093 100.804 18.3861 101.968 20.964C103.382 24.1239 105.793 26.3691 108.538 27.0344C111.199 27.6165 114.026 26.7849 116.77 24.5397C118.101 23.4587 119.182 22.045 119.847 20.3819L120.013 20.0492L120.346 19.9661C122.425 19.5503 123.838 18.0535 124.088 15.8914C124.254 14.6441 123.755 13.2304 122.924 12.3157C122.425 11.8167 121.593 11.2346 120.346 11.3178H119.93L119.764 10.902C119.431 10.2368 119.182 9.73782 118.849 9.23888C116.936 6.49472 114.192 4.66532 111.115 4.08322C110.45 4.08322 109.785 4.00003 109.203 4.00003Z" fill="#1A1A33"/>
<path d="M109.248 16.8116C109.495 16.4246 109.382 15.9104 108.995 15.6631C108.608 15.4158 108.094 15.529 107.846 15.916C107.599 16.303 107.712 16.8172 108.099 17.0645C108.486 17.3118 109.001 17.1986 109.248 16.8116Z" fill="#1A1A33"/>
<path d="M105.544 22.7105C104.712 21.0474 104.13 19.3011 103.714 17.4717C103.631 16.9727 104.463 16.8064 104.546 17.3053C104.879 19.0516 105.461 20.7148 106.292 22.3779C106.542 22.7937 105.793 23.2095 105.544 22.7105Z" fill="#1A1A33"/>
<path d="M117.768 16.7229C117.934 14.8103 119.431 13.1472 121.427 12.8978C121.926 12.8146 122.175 13.6462 121.593 13.7293C120.013 13.8956 118.766 15.143 118.6 16.7229C118.516 17.305 117.685 17.2219 117.768 16.7229Z" fill="#1A1A33"/>
<path d="M116.937 12.8979C116.354 14.9768 113.693 12.1495 108.621 11.1516C106.376 10.7358 96.8127 14.0621 95.3158 10.819C93.0706 6.07906 99.3905 3.33487 103.465 5.08116C103.049 3.33487 105.045 0.757043 107.706 2.08755C114.858 -1.48818 121.344 3.1686 120.512 11.1516C120.512 11.2348 117.602 12.2326 116.937 12.8979Z" fill="#1A1A33"/>
</svg>
