<svg width="375" height="104" viewBox="0 0 375 104" fill="none" xmlns="http://www.w3.org/2000/svg">
<path d="M374.964 44.6705C374.216 45.8735 373.457 46.6978 372.631 47.1879L371.806 47.6892C370.221 48.6471 368.588 49.6274 366.914 50.4628C364.306 51.7549 361.513 52.6015 358.618 52.9802C356.154 53.3033 353.947 53.3367 351.866 53.1028C349.025 52.7797 346.663 52.2339 344.426 51.4208C339.881 49.7499 335.312 46.9986 330.449 42.9996C328.523 41.4179 326.586 39.7582 324.714 38.1653C322.794 36.5278 320.814 34.8347 318.859 33.2307C310.659 26.5138 302.962 22.8379 295.312 22.0025C292.125 21.6572 289.284 21.7017 286.617 22.125C283.662 22.604 280.749 23.5731 277.962 24.9878C273.268 27.3938 269.416 30.6575 266.186 34.9795C263.16 39.0341 260.947 43.5009 259.434 48.636C258.37 52.2451 257.664 56.1994 257.335 60.4323C258.95 60.488 260.696 60.7219 262.49 61.3791C265.756 62.571 268.465 64.5537 270.78 67.4387C273.256 70.5243 274.972 74.2224 276.037 78.756C276.934 82.599 277.149 86.4754 276.665 90.2961C275.971 95.7543 274.087 99.898 271.204 102.259C268.884 104.175 266.312 104.51 263.567 103.262C259.422 101.379 256.157 96.7011 253.872 89.3493C252.443 84.7489 251.522 79.4355 251.073 73.1085C249.596 73.4873 248.196 73.8437 246.827 74.3895C243.735 75.6037 240.595 76.9404 237.557 78.2436C236.02 78.9009 234.477 79.5581 232.934 80.2041C227.485 82.4765 222.138 84.5595 216.636 85.0273C213.359 85.2947 210.392 84.9828 207.557 84.036C199.029 81.2066 192.163 73.2311 187.157 60.332C186.798 59.3963 186.452 58.4495 186.105 57.4916L185.674 56.2997C185.614 56.1326 185.56 55.9432 185.507 55.765C185.465 55.6759 185.423 55.5868 185.387 55.4865L185.261 55.1524C185.118 54.7736 184.98 54.3949 184.849 54.0162C183.192 49.037 181.356 45.0381 179.233 41.7855C174.592 34.6787 169.078 31.092 162.373 30.8358C160.974 30.7801 159.544 30.9694 158.031 31.1699L157.032 31.3036C154.712 31.5932 152.254 32.3061 149.066 33.6094C146.805 34.5339 144.551 35.503 142.296 36.4721C139.569 37.6417 136.752 38.8448 133.959 39.9698C131.77 40.8498 129.557 41.5404 127.416 42.2088L125.747 42.7323C125.526 42.7991 125.311 42.866 125.089 42.9217C125.065 43.6791 125.024 44.4588 124.964 45.272C124.222 54.9073 122.033 63.451 118.457 70.6691C115.67 76.3054 112.213 81.0061 108.17 84.6486C101.806 90.3852 94.803 93.4819 86.753 94.1057C85.9516 94.1725 85.1502 94.1948 84.3428 94.1948C81.3464 94.1948 78.2723 93.7715 75.0128 92.9027C71.245 91.9001 67.4592 90.2961 63.7631 88.1351C58.4223 85.0162 53.4225 80.8391 49.6606 77.553C45.7432 74.1333 41.3055 70.2569 36.814 67.461C31.4493 64.1193 26.0009 62.5041 20.678 62.6044C18.2439 62.6601 15.8337 63.0834 13.5132 63.8742C10.7919 64.7988 7.61018 66.0575 4.60188 68.4524C4.28491 68.7086 4.00979 68.8311 3.81243 68.9202C2.46079 69.6331 1.0314 68.5081 0.361557 66.2134C-0.308283 63.9188 -0.0271892 61.0672 1.03738 59.3518C1.78497 58.1488 2.54452 57.3245 3.36986 56.8344L4.20716 56.3108C5.79205 55.3529 7.42478 54.3726 9.09938 53.5372C11.707 52.2451 14.5 51.3985 17.3946 51.0198C19.8587 50.6967 22.0656 50.6633 24.1469 50.8972C26.9877 51.2203 29.3501 51.7661 31.5869 52.5792C36.1322 54.2501 40.7015 57.0014 45.5638 61.0004C47.4896 62.5821 49.4273 64.2418 51.2993 65.8347C53.2191 67.4722 55.1987 69.1653 57.1544 70.7693C65.354 77.4862 73.0512 81.1621 80.7005 81.9975C83.8882 82.3428 86.7291 82.2983 89.3965 81.875C92.3509 81.396 95.2635 80.4269 98.0506 79.0122C102.745 76.6062 106.597 73.3425 109.827 69.0205C112.853 64.9659 115.066 60.4991 116.579 55.364C117.643 51.7549 118.349 47.8006 118.678 43.5677C117.063 43.512 115.317 43.2781 113.523 42.6209C110.257 41.429 107.548 39.4463 105.233 36.5612C102.757 33.4757 101.041 29.7776 99.9763 25.244C99.0792 21.401 98.8639 17.5246 99.3484 13.7039C100.042 8.24573 101.926 4.10201 104.809 1.74052C107.129 -0.175397 109.701 -0.509577 112.446 0.737999C116.591 2.6205 119.856 7.29891 122.141 14.6507C123.57 19.2511 124.491 24.5645 124.94 30.8915C126.417 30.5127 127.817 30.1563 129.186 29.6105C132.278 28.3963 135.418 27.0596 138.456 25.7563C139.993 25.0991 141.536 24.4419 143.079 23.7959C148.528 21.5235 153.875 19.4405 159.377 18.9727C162.654 18.7053 165.621 19.0172 168.456 19.964C176.984 22.7934 183.85 30.7689 188.856 43.668C189.215 44.6036 189.561 45.5505 189.908 46.5084L190.339 47.7003C190.399 47.8674 190.453 48.0568 190.506 48.235C190.548 48.3241 190.59 48.4132 190.626 48.5135L190.752 48.8476C190.895 49.2264 191.033 49.6051 191.164 49.9838C192.821 54.963 194.657 58.9619 196.78 62.2145C201.421 69.3212 206.935 72.908 213.64 73.1642C215.039 73.2199 216.469 73.0306 217.982 72.8301L218.981 72.6964C221.301 72.4068 223.759 71.6939 226.947 70.3906C229.208 69.4661 231.462 68.497 233.717 67.5279C236.444 66.3583 239.261 65.1552 242.054 64.0302C244.243 63.1502 246.456 62.4596 248.597 61.7912L250.266 61.2677C250.487 61.2009 250.702 61.134 250.924 61.0783C250.948 60.3209 250.989 59.5411 251.049 58.728C251.791 49.0927 253.98 40.549 257.556 33.3309C260.343 27.6945 263.8 22.9939 267.843 19.3514C274.207 13.6148 281.21 10.5181 289.26 9.89432C290.061 9.82749 290.863 9.8052 291.67 9.8052C294.667 9.8052 297.741 10.2285 301 11.0973C304.768 12.0998 308.554 13.7039 312.25 15.8649C317.591 18.9838 322.591 23.161 326.352 26.447C330.27 29.8667 334.707 33.7431 339.199 36.539C344.564 39.8807 350.012 41.4959 355.335 41.3956C357.769 41.3399 360.179 40.9166 362.5 40.1257C365.221 39.2012 368.403 37.9425 371.411 35.5476C371.728 35.2914 372.003 35.1689 372.201 35.0797C373.552 34.3668 374.982 35.4919 375.651 37.7865C376.303 40.1035 376.022 42.9551 374.964 44.6705ZM258.986 81.9641C260.152 86.3974 261.797 89.3939 264.021 91.0981C264.901 91.7776 265.75 92.1118 266.575 92.1118C267.149 92.1118 267.717 91.9447 268.28 91.6217C269.482 90.9199 270.164 89.6612 270.487 87.5336C270.606 86.765 270.702 85.4952 270.182 83.3342C269.625 81.0284 268.68 79.0568 267.281 77.2968C265.714 75.3252 263.854 73.9551 261.438 73.0194C260.146 72.5182 258.806 72.3288 257.437 72.2731C257.754 76.0492 258.262 79.2239 258.986 81.9641ZM117.033 22.0248C115.867 17.5914 114.222 14.595 111.998 12.8907C111.118 12.2112 110.269 11.8771 109.444 11.8771C108.87 11.8771 108.302 12.0442 107.739 12.3672C106.537 13.0689 105.855 14.3277 105.532 16.4552C105.413 17.2238 105.317 18.4937 105.837 20.6547C106.394 22.9604 107.339 24.9321 108.738 26.692C110.305 28.6636 112.165 30.0338 114.581 30.9694C115.873 31.4707 117.213 31.6601 118.582 31.7158C118.259 27.9507 117.751 24.7761 117.033 22.0248Z" fill="url(#paint0_linear_1_432)"/>
<defs>
<linearGradient id="paint0_linear_1_432" x1="0" y1="52.007" x2="375.998" y2="52.007" gradientUnits="userSpaceOnUse">
<stop offset="0.364583" stop-color="#0050DC"/>
<stop offset="0.604167" stop-color="#00D37F"/>
<stop offset="0.791667" stop-color="#21D96B"/>
<stop offset="1" stop-color="#D5F900"/>
</linearGradient>
</defs>
</svg>
