<svg width="267" height="336" viewBox="0 0 267 336" fill="none" xmlns="http://www.w3.org/2000/svg">
<path d="M92.7795 34.4642V4.43181C92.7795 1.98305 90.7939 0 88.3477 0H58.3152C55.8665 0 53.8834 1.98561 53.8834 4.43181C53.8834 4.86168 54.0549 5.27621 54.3594 5.5807L59.2441 10.4654C59.6202 10.8416 60.2292 10.8416 60.6053 10.4654L67.5576 3.5132C68.7653 2.30546 70.7202 2.30546 71.928 3.5132C73.0973 4.68257 73.1306 6.5556 72.0329 7.76846C71.9945 7.80428 71.9535 7.83499 71.9177 7.87337L64.2823 15.5088L57.6704 22.1207C57.5962 22.1949 57.5271 22.2716 57.4632 22.351C56.4704 23.5638 56.5394 25.3575 57.6704 26.4911C58.804 27.6246 60.5977 27.6937 61.8105 26.6983C61.8899 26.6344 61.9666 26.5653 62.0408 26.4911L68.6527 19.8792L72.1813 16.3506C73.3941 15.3578 75.1878 15.4269 76.3214 16.5579C77.4549 17.6914 77.524 19.4851 76.5286 20.698L73.0001 24.2265L66.3882 30.8384C66.314 30.9126 66.2449 30.9894 66.1809 31.0687C65.1881 32.2816 65.2572 34.0753 66.3882 35.2088C67.5217 36.3424 69.3154 36.4115 70.5283 35.4161C70.6076 35.3521 70.6844 35.283 70.7586 35.2088L77.3705 28.5969L85.0059 20.9615C85.0417 20.9257 85.075 20.8848 85.1108 20.8464C86.3595 19.7154 88.3093 19.7845 89.4684 21.0588C90.5917 22.2947 90.4587 24.2265 89.2791 25.4087L82.4138 32.2739C82.0377 32.6501 82.0377 33.2591 82.4138 33.6352L87.2013 38.4227C87.5058 38.7272 87.9178 38.8986 88.3502 38.8986C90.7964 38.896 92.7795 36.913 92.7795 34.4642Z" fill="#0050DC"/>
<path d="M112.04 12.538C107.234 12.538 102.779 16.522 102.779 22.5403C102.779 28.9859 107.349 32.7371 112.508 32.7371C117.078 32.7371 120.087 30.0427 121.103 26.7214L117.275 25.511C116.651 27.3866 115.243 28.8324 112.508 28.8324C109.696 28.8324 107.429 26.7623 107.311 23.8709H121.221C121.259 23.7915 121.338 23.1672 121.338 22.4252C121.338 16.4043 117.902 12.538 112.04 12.538ZM107.431 20.547C107.587 18.5153 109.228 16.3276 112.081 16.3276C115.207 16.3276 116.692 18.3209 116.768 20.547H107.431Z" fill="#0050DC"/>
<path d="M147.274 12.538C144.769 12.538 142.505 13.4131 140.995 15.9566C139.961 13.692 137.735 12.538 135.192 12.538C133.006 12.538 130.581 13.5718 129.468 15.5574V13.0933H125.056V32.4505H129.626V20.9641C129.626 18.5 131.177 16.6705 133.641 16.6705C136.264 16.6705 137.377 18.4181 137.377 20.6442V32.4479H141.908V20.9615C141.908 18.5767 143.497 16.6679 145.923 16.6679C148.508 16.6679 149.659 18.3772 149.659 20.6417V32.4453H154.111V19.8843C154.111 14.7616 150.772 12.538 147.274 12.538Z" fill="#0050DC"/>
<path d="M160.329 6.1615C158.699 6.1615 157.351 7.51253 157.351 9.18086C157.351 10.8492 158.702 12.1593 160.329 12.1593C161.997 12.1593 163.348 10.8492 163.348 9.18086C163.346 7.51253 161.997 6.1615 160.329 6.1615Z" fill="#0050DC"/>
<path d="M162.632 13.0932H158.062V32.4504H162.632V13.0932Z" fill="#0050DC"/>
<path d="M213.117 22.42C213.117 16.4043 209.678 12.5354 203.818 12.5354C199.013 12.5354 194.558 16.5194 194.558 22.5377C194.558 28.9833 199.128 32.7344 204.286 32.7344C208.856 32.7344 211.865 30.04 212.881 26.7187L209.053 25.5084C208.429 27.384 207.022 28.8297 204.286 28.8297C201.474 28.8297 199.207 26.7597 199.089 23.8683H212.999C213.037 23.7889 213.117 23.1646 213.117 22.42ZM199.207 20.5469C199.363 18.5153 201.003 16.3275 203.856 16.3275C206.983 16.3275 208.467 18.3208 208.544 20.5469H199.207Z" fill="#0050DC"/>
<path d="M188.028 26.1711V18.83V17.1872H191.265H192.043V13.0932H191.265H188.028V6.55035H183.855H183.458V11.778V13.0932H175.449V6.55035H171.276H170.879V11.778V13.0932H166.606V17.3663H170.879V18.83V21.3171V26.9259C170.879 30.5415 173.105 32.6883 176.682 32.6883C178.351 32.6883 179.226 32.371 179.505 32.2508V28.4356C179.305 28.4766 178.55 28.5943 177.916 28.5943C176.206 28.5943 175.452 27.8778 175.452 26.1711V18.83V17.1872H183.461V18.83V21.3171V26.9259C183.461 30.5415 185.687 32.6883 189.264 32.6883C190.932 32.6883 191.807 32.371 192.086 32.2508V28.4356C191.887 28.4766 191.132 28.5943 190.497 28.5943C188.785 28.5943 188.028 27.8778 188.028 26.1711Z" fill="#0050DC"/>
<path d="M71.5885 106.545C71.5885 126.231 55.6293 142.191 35.9425 142.191C16.2558 142.191 0.296509 126.231 0.296509 106.545C0.296509 86.8579 16.2558 70.8986 35.9425 70.8986C55.6293 70.8986 71.5885 86.8579 71.5885 106.545Z" fill="#D5F900"/>
<path d="M266.704 220.049C266.704 239.736 250.744 255.695 231.058 255.695C211.371 255.695 195.411 239.736 195.411 220.049C195.411 200.362 211.371 184.403 231.058 184.403C250.744 184.403 266.704 200.362 266.704 220.049Z" fill="#D5F900"/>
<path d="M125.527 300.253C125.527 319.939 109.567 335.899 89.8806 335.899C70.1939 335.899 54.2346 319.939 54.2346 300.253C54.2346 280.566 70.1939 264.607 89.8806 264.607C109.567 264.607 125.527 280.566 125.527 300.253Z" fill="#D5F900"/>
<path d="M236.11 266.94L249.029 282.89L219.92 309.767C219.92 309.767 216.491 306.018 218.724 302.19C219.84 300.196 220.877 296.687 221.116 292.859C221.116 292.62 221.116 292.301 221.196 292.062C221.276 291.105 221.276 290.148 221.196 289.191C221.196 288.951 221.116 288.632 221.116 288.393C220.877 286.24 220.319 284.166 219.362 282.412L236.11 266.94Z" fill="#1A1A33"/>
<path d="M228.693 288.154C226.22 288.473 223.668 288.872 221.196 289.27C221.196 289.031 221.116 288.712 221.116 288.473C223.589 288.154 226.061 287.755 228.533 287.436C229.012 287.356 229.171 288.154 228.693 288.154Z" fill="white"/>
<path d="M227.975 292.62C225.742 292.699 223.429 292.779 221.196 292.859C221.196 292.62 221.196 292.301 221.276 292.061C223.509 291.982 225.822 291.902 228.055 291.822C228.533 291.822 228.454 292.62 227.975 292.62Z" fill="white"/>
<path d="M180.363 286.878L179.007 307.374H139.37C139.37 307.374 139.37 302.35 143.597 300.994C145.751 300.356 148.941 298.362 151.732 295.81C151.891 295.651 152.131 295.491 152.29 295.252C152.928 294.614 153.646 293.896 154.204 293.178C154.364 292.939 154.523 292.779 154.683 292.54C155.959 290.786 156.996 288.872 157.394 286.958H180.363V286.878Z" fill="#1A1A33"/>
<path d="M222.711 239.026C218.644 224.671 212.025 184.556 212.025 184.556L189.136 189.819C188.498 187.507 188.019 186.071 188.019 186.071L164.891 194.923C164.891 213.585 154.523 287.914 154.523 287.914L184.51 292.141C184.51 292.141 187.939 259.682 190.173 234.879C198.626 263.75 212.902 284.804 218.644 288.393L240.496 270.449C240.576 270.369 226.779 253.382 222.711 239.026Z" fill="white"/>
<path d="M185.068 292.779L153.806 288.393L153.885 287.835C153.965 287.117 164.253 213.267 164.253 194.924V194.525L188.338 185.274L188.498 185.912C188.498 185.912 188.896 187.188 189.455 189.181L212.423 183.918L212.503 184.556C212.583 184.955 219.202 224.831 223.19 239.026C227.178 253.063 240.815 269.97 240.895 270.13L241.294 270.608L218.644 289.191L218.245 288.951C212.742 285.602 199.105 265.903 190.412 238.07C188.179 262.155 185.068 291.982 184.989 292.301L185.068 292.779ZM155.161 287.356L183.952 291.344C184.43 286.718 187.461 257.37 189.534 234.72L189.853 231.61L190.731 234.64C199.105 263.112 212.822 283.528 218.564 287.516L239.619 270.21C237.386 267.339 225.662 252.106 221.994 239.106C218.245 225.867 212.264 190.298 211.387 185.194L188.577 190.378L188.418 189.819C188.019 188.384 187.7 187.347 187.541 186.709L165.449 195.322C165.37 213.506 156.118 280.338 155.161 287.356Z" fill="#1A1A33"/>
<path d="M205.724 190.617C205.485 190.617 205.246 190.457 205.166 190.218C204.847 189.5 204.528 188.783 204.209 188.065C204.049 187.746 204.209 187.427 204.528 187.267C204.847 187.108 205.166 187.267 205.325 187.586C205.644 188.304 205.964 189.022 206.283 189.819C206.442 190.138 206.282 190.457 205.963 190.617C205.884 190.537 205.804 190.617 205.724 190.617Z" fill="#1A1A33"/>
<path d="M228.454 267.897C228.215 267.897 228.055 267.817 227.896 267.578C227.098 266.222 226.3 264.707 225.503 263.112C225.343 262.792 225.503 262.473 225.742 262.314C226.061 262.154 226.38 262.314 226.54 262.553C227.337 264.148 228.135 265.584 228.932 266.94C229.092 267.259 229.012 267.578 228.693 267.737C228.613 267.817 228.534 267.897 228.454 267.897ZM223.828 258.885C223.589 258.885 223.35 258.725 223.27 258.566C222.552 257.05 221.914 255.535 221.196 253.94C221.037 253.621 221.196 253.302 221.515 253.142C221.834 252.983 222.153 253.143 222.313 253.462C222.951 255.057 223.669 256.572 224.307 258.087C224.466 258.406 224.307 258.725 223.988 258.885C223.988 258.805 223.908 258.885 223.828 258.885ZM219.92 249.554C219.681 249.554 219.442 249.394 219.362 249.155C218.804 247.64 218.325 246.045 217.767 244.29C217.687 243.971 217.847 243.652 218.166 243.572C218.485 243.492 218.804 243.652 218.884 243.971C219.362 245.646 219.92 247.321 220.399 248.756C220.479 249.075 220.319 249.394 220.08 249.554C220.08 249.474 220 249.554 219.92 249.554ZM217.129 239.824C216.89 239.824 216.65 239.664 216.571 239.345C216.172 237.83 215.853 236.155 215.454 234.401C215.374 234.082 215.614 233.763 215.933 233.683C216.252 233.603 216.571 233.842 216.65 234.161C217.049 235.916 217.368 237.591 217.767 239.106C217.847 239.425 217.608 239.744 217.288 239.824C217.209 239.824 217.129 239.824 217.129 239.824ZM215.055 229.855C214.736 229.855 214.497 229.616 214.497 229.376C214.178 227.702 213.859 226.107 213.62 224.432C213.54 224.113 213.779 223.794 214.098 223.714C214.417 223.634 214.736 223.873 214.816 224.192C215.135 225.867 215.374 227.542 215.693 229.137C215.773 229.456 215.534 229.775 215.215 229.855C215.135 229.855 215.135 229.855 215.055 229.855ZM213.301 219.966C212.982 219.966 212.743 219.726 212.743 219.487C212.424 217.812 212.105 216.138 211.865 214.542C211.786 214.223 212.025 213.904 212.344 213.825C212.663 213.745 212.982 213.984 213.062 214.303C213.381 215.978 213.7 217.653 213.939 219.328C214.019 219.647 213.779 219.966 213.46 220.045C213.381 219.966 213.301 219.966 213.301 219.966ZM211.387 209.997C211.148 209.997 210.829 209.837 210.829 209.518C210.43 207.764 210.111 206.169 209.712 204.573C209.632 204.254 209.872 203.935 210.191 203.856C210.51 203.776 210.829 204.015 210.908 204.334C211.307 205.929 211.626 207.524 212.025 209.279C212.105 209.598 211.865 209.917 211.546 209.997C211.467 209.997 211.467 209.997 211.387 209.997ZM208.994 200.187C208.755 200.187 208.516 200.028 208.436 199.788C207.958 198.114 207.479 196.518 206.921 195.003C206.841 194.684 207 194.365 207.319 194.206C207.638 194.126 207.957 194.285 208.117 194.604C208.596 196.12 209.154 197.795 209.632 199.469C209.712 199.788 209.553 200.107 209.234 200.187C209.154 200.107 209.074 200.187 208.994 200.187Z" fill="#1A1A33"/>
<path d="M232.601 274.037C232.441 274.037 232.282 273.958 232.122 273.878C232.122 273.878 231.564 273.24 230.607 271.884C230.448 271.645 230.448 271.246 230.767 271.087C231.006 270.927 231.405 270.927 231.564 271.246C232.441 272.522 232.92 273.08 233 273.08C233.239 273.32 233.239 273.718 232.92 273.958C232.84 273.958 232.681 274.037 232.601 274.037Z" fill="#1A1A33"/>
<path d="M160.505 297.485C158.431 296.05 156.358 294.614 154.284 293.178C154.444 292.939 154.603 292.78 154.763 292.54C156.836 293.976 158.91 295.412 160.903 296.767C161.302 297.086 160.903 297.724 160.505 297.485Z" fill="white"/>
<path d="M156.916 300.196C155.241 298.681 153.486 297.246 151.732 295.73C151.891 295.571 152.131 295.411 152.29 295.172C153.965 296.687 155.72 298.123 157.474 299.558C157.873 300.037 157.315 300.595 156.916 300.196Z" fill="white"/>
<path d="M189.614 229.456C189.375 229.456 189.136 229.297 189.056 229.057C187.381 224.99 185.467 207.764 185.068 204.653C184.271 204.573 182.277 204.254 178.688 203.537C178.369 203.457 178.13 203.138 178.21 202.819C178.289 202.5 178.608 202.261 178.927 202.34C183.792 203.297 185.627 203.537 185.627 203.537L186.105 203.616L186.185 204.095C186.185 204.334 188.418 224.432 190.093 228.659C190.252 228.978 190.093 229.297 189.774 229.456C189.774 229.456 189.694 229.456 189.614 229.456Z" fill="#1A1A33"/>
<path d="M172.388 136.545C164.333 139.257 157.634 144.76 159.388 167.888C161.143 191.016 161.621 196.998 161.621 196.998L213.46 189.66C213.46 189.581 198.307 127.773 172.388 136.545Z" fill="#00D37F"/>
<path d="M161.063 197.636L160.983 196.998C160.983 196.918 160.425 190.777 158.75 167.888C157.076 145.717 162.897 139.097 172.149 135.987C176.615 134.472 181.081 134.95 185.388 137.263C203.491 147.232 213.62 187.667 214.019 189.421L214.178 190.059L161.063 197.636ZM172.547 137.104C165.529 139.496 158.192 143.962 159.947 167.808C161.382 186.709 161.94 194.206 162.1 196.28L212.663 189.102C211.307 183.838 201.258 147.392 184.829 138.38C180.842 136.147 176.695 135.748 172.547 137.104Z" fill="#00D37F"/>
<path d="M194.001 167.888C201.019 167.888 207.957 167.808 214.976 167.728C212.982 152.496 200.142 135.11 179.406 133.275V147.95C186.424 148.189 193.044 159.274 194.001 167.888Z" fill="#00D37F"/>
<path d="M193.443 168.446L193.363 167.888C192.406 159.275 185.866 148.668 179.326 148.428H178.768V132.558L179.406 132.637C200.222 134.472 213.54 152.017 215.534 167.648L215.614 168.287H214.976C208.117 168.366 201.019 168.446 194.001 168.446H193.443ZM179.964 147.312C186.823 148.109 193.283 158.397 194.479 167.25C201.099 167.25 207.718 167.17 214.258 167.09C212.025 152.336 199.424 135.987 179.964 133.913V147.312Z" fill="#00D37F"/>
<path d="M199.902 116.527L205.325 102.012C207.558 96.031 199.743 93.0802 197.51 99.0616L192.166 113.337C194.798 114.374 197.35 115.411 199.902 116.527Z" fill="#1A1A33"/>
<path d="M122.622 308.331C121.586 307.932 121.107 306.736 121.506 305.779L126.371 293.417C126.77 292.381 127.966 291.902 128.923 292.301C129.96 292.7 130.438 293.896 130.039 294.853L125.174 307.215C124.855 308.251 123.659 308.73 122.622 308.331Z" fill="#1A1A33"/>
<path d="M145.431 282.172L205.724 120.595C211.147 106.319 188.896 97.7855 183.473 112.141L123.18 273.719C120.469 280.896 120.07 298.761 125.573 300.914C131.235 303.068 142.72 289.35 145.431 282.172Z" fill="white"/>
<path d="M126.929 301.712C126.451 301.712 125.892 301.632 125.494 301.472C119.432 299.16 119.911 280.896 122.702 273.559L182.995 111.981C185.946 104.245 193.363 102.969 198.945 105.123C204.608 107.276 209.313 113.098 206.362 120.834L146.07 282.412C144.634 286.16 141.045 291.344 137.058 295.491C134.665 297.963 130.358 301.712 126.929 301.712ZM194.001 105.362C190.013 105.362 186.025 107.356 184.111 112.38L123.819 273.958C120.948 281.534 121.027 298.522 125.892 300.356C128.046 301.153 131.953 299.08 136.26 294.614C140.088 290.706 143.677 285.522 144.953 282.013L205.246 120.435C207.878 113.417 203.651 108.153 198.546 106.239C197.111 105.681 195.516 105.362 194.001 105.362Z" fill="#1A1A33"/>
<path d="M182.197 115.73L179.486 123.067C186.823 126.097 194.16 129.128 201.418 132.238L204.209 124.662C196.951 121.631 189.614 118.601 182.197 115.73Z" fill="#1A1A33"/>
<path d="M142.082 288.313C143.597 286.08 144.794 283.927 145.432 282.172L165.609 228.18C158.272 225.15 150.935 222.199 143.438 219.487L123.181 273.798C122.702 275.154 122.224 276.909 121.905 278.823C128.604 282.093 135.303 285.283 142.082 288.313Z" fill="#1A1A33"/>
<path d="M210.35 154.17C204.448 157.281 198.626 160.471 193.283 164.458C194.639 169.563 194.479 174.427 191.847 176.661C188.338 179.691 183.314 179.452 178.369 177.777C176.934 169.563 172.707 167.409 168.241 165.734C164.732 164.458 164.492 167.888 169.915 171.955L169.995 173.789C168.719 173.072 167.603 172.274 166.566 171.556C159.867 166.771 159.229 172.354 159.229 172.354C154.842 172.753 156.198 177.378 156.198 177.378C153.327 180.648 153.885 182.482 166.885 192.132C181.878 203.218 210.19 202.341 214.816 176.581C216.092 169.802 214.497 161.587 210.35 154.17Z" fill="white"/>
<path d="M187.94 199.549C180.363 199.549 172.547 197.157 166.566 192.691C157.394 185.832 154.444 183.041 154.204 180.568C154.045 179.292 154.763 178.256 155.56 177.299C155.401 176.581 155.161 174.826 156.118 173.47C156.677 172.593 157.554 172.115 158.83 171.875C158.99 171.158 159.468 169.882 160.744 169.323C162.259 168.606 164.333 169.244 166.965 171.078C167.762 171.636 168.56 172.194 169.437 172.673V172.194C166.247 169.722 164.652 167.09 165.449 165.575C165.689 165.176 166.486 164.299 168.56 165.096C173.185 166.851 177.492 169.084 179.007 177.219C184.51 178.894 188.737 178.575 191.608 176.102C193.841 174.188 194.32 169.882 192.804 164.458L192.725 164.06L193.044 163.82C198.706 159.673 204.847 156.324 210.19 153.532L210.749 153.293L211.068 153.772C215.215 161.348 216.89 169.642 215.614 176.661C213.301 189.421 205.565 195.003 199.583 197.396C195.835 198.832 191.927 199.549 187.94 199.549ZM162.02 170.36C161.701 170.36 161.382 170.44 161.143 170.52C160.026 170.998 159.867 172.513 159.867 172.513L159.787 172.992L159.309 173.072C158.272 173.151 157.474 173.55 157.075 174.188C156.278 175.384 156.756 177.299 156.756 177.299L156.836 177.617L156.597 177.857C155.56 178.973 155.241 179.691 155.321 180.489C155.56 182.482 158.671 185.433 167.204 191.734C176.056 198.353 189.136 200.267 198.866 196.359C204.608 194.046 211.945 188.783 214.178 176.581C215.374 169.961 213.859 162.146 210.031 154.968C204.927 157.6 199.185 160.79 193.841 164.698C195.356 170.44 194.718 174.986 192.166 177.139C188.897 179.93 184.032 180.329 178.05 178.415L177.731 178.335L177.651 178.016C176.296 170.201 172.468 168.127 167.922 166.452C166.965 166.053 166.406 166.213 166.247 166.452C165.928 166.931 166.566 169.004 170.155 171.716L170.394 171.875L170.474 175.065L169.517 174.507C168.32 173.789 167.124 172.992 166.087 172.274C164.492 170.918 163.057 170.36 162.02 170.36Z" fill="#1A1A33"/>
<path d="M162.02 175.225C161.222 174.587 160.664 173.79 160.345 172.753C160.186 172.274 159.468 172.434 159.548 172.992C159.867 174.109 160.505 175.066 161.382 175.783C161.861 176.102 162.419 175.544 162.02 175.225Z" fill="#1A1A33"/>
<path d="M159.069 180.09C158.112 179.851 157.394 179.133 157.155 178.176C156.995 177.697 156.278 177.857 156.357 178.415C156.676 179.611 157.634 180.568 158.83 180.887C159.388 180.967 159.627 180.17 159.069 180.09Z" fill="#1A1A33"/>
<path d="M153.088 201.144C149.021 191.175 147.904 175.623 162.18 159.912C162.738 159.354 163.216 158.796 163.695 158.237C165.131 151.618 166.885 145.158 169.916 139.017C169.437 138.299 168.959 137.98 168.959 137.98C154.763 144.44 136.26 154.489 130.997 181.047C127.647 197.635 133.628 211.352 142.162 216.935C147.426 220.364 151.652 224.91 154.683 223.714C154.683 223.714 158.352 224.272 160.664 220.524C160.664 220.524 164.492 220.444 164.094 216.696C163.854 214.702 161.542 211.99 159.149 209.199L160.585 208.322C163.057 210.475 168.161 212.23 166.805 208.242C165.45 204.653 161.063 202.34 153.088 201.144Z" fill="white"/>
<path d="M153.566 224.512C151.333 224.512 148.781 222.598 145.91 220.365C144.634 219.408 143.278 218.371 141.763 217.414C133.548 211.991 126.77 198.593 130.358 180.888C135.383 155.766 151.732 145.159 168.639 137.423L168.958 137.263L169.198 137.423C169.277 137.423 169.756 137.821 170.314 138.619L170.554 138.938L170.394 139.257C167.204 145.717 165.529 152.496 164.253 158.318V158.477L164.173 158.557C163.695 159.115 163.216 159.673 162.658 160.312C146.947 177.697 150.934 194.047 153.566 200.586C161.621 201.783 166.008 204.255 167.284 208.083C167.842 209.758 167.363 210.555 166.805 210.954C165.37 211.911 162.259 210.555 160.425 209.12L159.867 209.439C162.259 212.15 164.333 214.702 164.492 216.696C164.652 217.972 164.333 219.009 163.615 219.807C162.738 220.843 161.382 221.083 160.824 221.162C158.67 224.512 155.401 224.432 154.603 224.432C154.284 224.432 153.885 224.512 153.566 224.512ZM168.799 138.699C152.29 146.275 136.42 156.723 131.475 181.127C128.046 198.194 134.745 211.433 142.401 216.457C143.916 217.414 145.272 218.451 146.628 219.488C149.818 221.88 152.53 223.954 154.444 223.236L154.603 223.156H154.763C154.922 223.156 158.112 223.555 160.106 220.205L160.265 219.886H160.584C160.584 219.886 162.02 219.807 162.897 218.929C163.376 218.371 163.535 217.653 163.456 216.776C163.296 215.021 160.983 212.31 158.591 209.598L158.112 209.04L160.584 207.605L160.903 207.923C162.738 209.519 165.449 210.476 166.167 209.997C166.566 209.758 166.327 208.881 166.167 208.562C165.051 205.132 160.744 202.899 153.088 201.783L152.769 201.703L152.609 201.384C149.898 194.844 145.432 177.697 161.781 159.514C162.259 158.956 162.738 158.477 163.137 157.919C164.333 152.177 166.087 145.478 169.198 139.097C169.038 138.938 168.879 138.778 168.799 138.699Z" fill="#1A1A33"/>
<path d="M154.045 171.875C155.879 167.967 158.511 165.335 162.179 161.348C162.738 160.79 163.455 161.348 163.934 160.71C165.369 154.09 166.805 145.078 169.836 139.017C169.357 138.299 168.879 137.98 168.879 137.98C159.548 142.207 148.303 148.109 140.248 159.195C144.714 163.501 149.419 167.648 154.045 171.875Z" fill="#00D37F"/>
<path d="M154.284 172.832L153.726 172.274C152.769 171.397 151.812 170.599 150.934 169.722C147.266 166.452 143.517 163.023 139.929 159.593L139.53 159.195L139.849 158.796C147.744 148.029 158.351 142.128 168.719 137.422L169.038 137.263L169.277 137.422C169.357 137.422 169.836 137.821 170.394 138.619L170.633 138.938L170.474 139.257C168.001 144.281 166.566 151.219 165.29 157.36C165.05 158.557 164.811 159.673 164.572 160.79V160.949L164.492 161.029C164.093 161.507 163.535 161.507 163.216 161.507C162.897 161.507 162.817 161.507 162.738 161.587C162.259 162.066 161.86 162.544 161.382 163.023C158.431 166.293 156.278 168.605 154.683 171.955L154.284 172.832ZM141.045 159.115C144.474 162.464 148.143 165.734 151.652 168.845C152.37 169.483 153.167 170.2 153.885 170.838C155.48 167.728 157.713 165.336 160.425 162.305C160.824 161.826 161.302 161.348 161.781 160.869C162.259 160.391 162.738 160.391 163.136 160.391C163.296 160.391 163.376 160.391 163.455 160.391C163.695 159.354 163.854 158.317 164.093 157.201C165.29 151.14 166.725 144.201 169.198 139.097C169.038 138.938 168.958 138.778 168.799 138.698C158.83 143.244 148.622 148.907 141.045 159.115Z" fill="#00D37F"/>
<path d="M160.186 220.046C158.591 217.095 156.756 214.224 154.683 211.512C154.364 211.113 153.646 211.512 153.965 211.911C156.038 214.622 157.793 217.414 159.468 220.444C159.787 220.923 160.425 220.524 160.186 220.046Z" fill="#1A1A33"/>
<path d="M155.56 222.837C154.124 219.487 151.971 216.616 149.02 214.463C148.622 214.144 148.223 214.862 148.622 215.181C151.413 217.174 153.486 219.886 154.842 223.076C155.002 223.475 155.719 223.315 155.56 222.837Z" fill="#1A1A33"/>
<path d="M158.989 162.305C158.67 162.305 158.431 162.066 158.431 161.826L157.634 157.201C157.554 156.882 157.793 156.563 158.112 156.483C158.431 156.403 158.75 156.643 158.83 156.962L159.627 161.587C159.707 161.906 159.468 162.225 159.149 162.305C158.989 162.305 158.989 162.305 158.989 162.305Z" fill="#1A1A33"/>
<path d="M175.578 123.147C175.499 120.355 172.707 118.68 169.597 120.196C169.118 120.435 168.72 120.754 168.241 121.153C168.241 121.153 168.241 121.153 168.161 121.073C163.775 116.447 156.837 115.809 152.689 119.717C148.542 123.625 149.499 129.925 153.008 135.269C156.278 140.054 163.057 142.606 168.48 136.625C170.235 134.631 171.272 131.999 171.351 129.287C174.223 128.41 175.578 125.619 175.578 123.147Z" fill="white"/>
<path d="M161.462 140.772C161.223 140.772 161.063 140.772 160.824 140.772C157.634 140.533 154.603 138.619 152.61 135.668C148.462 129.527 148.383 123.147 152.37 119.398C154.524 117.404 157.395 116.447 160.505 116.687C163.456 116.926 166.167 118.282 168.321 120.435C168.64 120.196 169.039 119.957 169.358 119.797C171.032 118.92 172.787 118.92 174.143 119.717C175.339 120.435 176.136 121.711 176.136 123.226C176.216 125.619 174.94 128.65 171.91 129.846C171.75 132.557 170.713 135.109 168.959 137.103C166.247 140.054 163.456 140.772 161.462 140.772ZM159.389 117.803C156.996 117.803 154.763 118.681 153.088 120.196C148.781 124.263 150.616 130.643 153.487 134.95C155.321 137.662 158.033 139.336 160.824 139.496C163.456 139.655 165.928 138.539 168.002 136.226C169.677 134.392 170.634 131.919 170.713 129.288V128.889L171.112 128.729C173.744 127.852 174.94 125.22 174.86 123.147C174.86 122.11 174.302 121.153 173.425 120.674C172.388 120.036 171.032 120.116 169.756 120.754C169.358 120.993 168.959 121.233 168.48 121.631L168.081 122.03L167.683 121.631C165.609 119.478 162.977 118.122 160.186 117.883C160.027 117.803 159.708 117.803 159.389 117.803Z" fill="#1A1A33"/>
<path d="M159.804 130.005C159.984 129.603 159.804 129.131 159.402 128.951C159 128.771 158.528 128.951 158.348 129.353C158.168 129.755 158.348 130.227 158.75 130.407C159.152 130.587 159.624 130.407 159.804 130.005Z" fill="#1A1A33"/>
<path d="M157.156 136.147C156.119 134.711 155.321 133.116 154.683 131.441C154.524 130.963 155.242 130.644 155.401 131.122C155.959 132.717 156.757 134.232 157.714 135.668C158.113 136.067 157.475 136.545 157.156 136.147Z" fill="#1A1A33"/>
<path d="M151.653 126.417C154.045 125.539 161.382 119.159 164.174 123.785C164.891 124.981 164.891 125.938 166.247 125.619C167.523 125.061 167.284 123.466 167.284 123.466C168.241 122.11 168.56 120.754 169.597 120.196C172.468 115.57 165.37 109.828 161.382 113.258C161.382 113.258 152.53 111.104 149.978 116.607C145.432 118.441 143.757 121.95 144.714 125.22C146.389 130.803 151.653 126.417 151.653 126.417Z" fill="#1A1A33"/>
<path d="M169.038 125.938C168.959 124.024 170.155 122.349 171.989 121.791C172.468 121.631 172.787 122.429 172.308 122.509C170.873 122.907 169.836 124.263 169.916 125.779C169.836 126.417 169.038 126.496 169.038 125.938Z" fill="#1A1A33"/>
<path d="M62.9606 99.4745C48.7834 107.013 35.1955 109.659 22.1694 107.654V157.128C22.1694 175.127 33.108 191.089 49.2956 196.716L62.9661 201.466L76.6366 196.716C92.8241 191.089 103.763 175.127 103.763 157.128V107.654C90.7312 109.659 77.1378 107.013 62.9606 99.4745Z" stroke="#1A1A33" stroke-width="5" stroke-miterlimit="10" stroke-linecap="round" stroke-linejoin="round"/>
<path d="M62.9605 114.466C53.0548 119.775 43.5611 121.641 34.4575 120.225V156.714C34.4575 169.391 42.0997 180.636 53.4119 184.601L62.966 187.949L72.5201 184.601C83.8323 180.636 91.4745 169.391 91.4745 156.714V120.225C82.3654 121.641 72.8718 119.775 62.9605 114.466Z" stroke="#00D37F" stroke-width="6" stroke-miterlimit="10" stroke-linecap="round" stroke-linejoin="round"/>
<path d="M111.627 142.237H14.3051V170.5H111.627V142.237Z" fill="white"/>
<path d="M20.2457 165.051V147.686H105.687V165.051H20.2457Z" fill="white" stroke="#00D37F" stroke-width="5"/>
<path d="M25.1185 156.329L31.7501 156.329" stroke="#1A1A33" stroke-width="5" stroke-linecap="round" stroke-linejoin="round"/>
<path d="M28.4724 159.682L28.4724 153.051" stroke="#1A1A33" stroke-width="5" stroke-linecap="round" stroke-linejoin="round"/>
<path d="M30.9116 153.889L26.2224 158.579" stroke="#1A1A33" stroke-width="5" stroke-linecap="round" stroke-linejoin="round"/>
<path d="M26.1857 153.889L30.8749 158.579" stroke="#1A1A33" stroke-width="5" stroke-linecap="round" stroke-linejoin="round"/>
<path d="M59.7108 156.329L66.3424 156.329" stroke="#1A1A33" stroke-width="5" stroke-linecap="round" stroke-linejoin="round"/>
<path d="M63.0647 159.682L63.0647 153.051" stroke="#1A1A33" stroke-width="5" stroke-linecap="round" stroke-linejoin="round"/>
<path d="M65.5039 153.889L60.8147 158.579" stroke="#1A1A33" stroke-width="5" stroke-linecap="round" stroke-linejoin="round"/>
<path d="M60.778 153.889L65.4672 158.579" stroke="#1A1A33" stroke-width="5" stroke-linecap="round" stroke-linejoin="round"/>
<path d="M77.7118 156.329L84.3434 156.329" stroke="#1A1A33" stroke-width="5" stroke-linecap="round" stroke-linejoin="round"/>
<path d="M81.0657 159.682L81.0657 153.051" stroke="#1A1A33" stroke-width="5" stroke-linecap="round" stroke-linejoin="round"/>
<path d="M83.5049 153.889L78.8157 158.579" stroke="#1A1A33" stroke-width="5" stroke-linecap="round" stroke-linejoin="round"/>
<path d="M78.7789 153.889L83.4682 158.579" stroke="#1A1A33" stroke-width="5" stroke-linecap="round" stroke-linejoin="round"/>
<path d="M42.3219 156.329L48.9535 156.329" stroke="#1A1A33" stroke-width="5" stroke-linecap="round" stroke-linejoin="round"/>
<path d="M45.6758 159.682L45.6758 153.051" stroke="#1A1A33" stroke-width="5" stroke-linecap="round" stroke-linejoin="round"/>
<path d="M48.1149 153.889L43.4256 158.579" stroke="#1A1A33" stroke-width="5" stroke-linecap="round" stroke-linejoin="round"/>
<path d="M43.389 153.889L48.0783 158.579" stroke="#1A1A33" stroke-width="5" stroke-linecap="round" stroke-linejoin="round"/>
<path d="M95.4067 156.329L102.038 156.329" stroke="#1A1A33" stroke-width="5" stroke-linecap="round" stroke-linejoin="round"/>
<path d="M98.7606 159.682L98.7606 153.051" stroke="#1A1A33" stroke-width="5" stroke-linecap="round" stroke-linejoin="round"/>
<path d="M101.2 153.889L96.5106 158.579" stroke="#1A1A33" stroke-width="5" stroke-linecap="round" stroke-linejoin="round"/>
<path d="M96.4739 153.889L101.163 158.579" stroke="#1A1A33" stroke-width="5" stroke-linecap="round" stroke-linejoin="round"/>
<path d="M58.9567 129.703C58.5913 129.703 58.2966 129.415 58.2966 129.057V126.16C58.2966 123.506 60.5008 121.347 63.2119 121.347C65.9229 121.347 68.1272 123.506 68.1272 126.16V129.057C68.1272 129.415 67.8325 129.703 67.4671 129.703" stroke="#1A1A33" stroke-width="5" stroke-miterlimit="10" stroke-linecap="round" stroke-linejoin="round"/>
<path d="M69.356 129.703H56.5763V141.009H69.356V129.703Z" stroke="#1A1A33" stroke-width="5" stroke-miterlimit="10" stroke-linecap="round" stroke-linejoin="round"/>
<path d="M62.1444 134.248C62.1444 133.77 62.5318 133.383 63.0097 133.383C63.4876 133.383 63.875 133.77 63.875 134.248C63.875 134.726 63.4876 135.113 63.0097 135.113C62.5318 135.113 62.1444 134.726 62.1444 134.248Z" fill="#00D37F" stroke="#00D37F" stroke-width="5"/>
<mask id="path-77-inside-1_155_4916" fill="white">
<path d="M63.0097 138.279C62.5292 138.279 62.1371 137.887 62.1371 137.407V134.353H63.8823V137.407C63.8823 137.893 63.4957 138.279 63.0097 138.279Z"/>
</mask>
<path d="M63.0097 138.279C62.5292 138.279 62.1371 137.887 62.1371 137.407V134.353H63.8823V137.407C63.8823 137.893 63.4957 138.279 63.0097 138.279Z" fill="#00D37F"/>
<path d="M62.1371 134.353V129.353H57.1371V134.353H62.1371ZM63.8823 134.353H68.8823V129.353H63.8823V134.353ZM63.0097 133.279C65.2906 133.279 67.1371 135.126 67.1371 137.407H57.1371C57.1371 140.649 59.7678 143.279 63.0097 143.279V133.279ZM67.1371 137.407V134.353H57.1371V137.407H67.1371ZM62.1371 139.353H63.8823V129.353H62.1371V139.353ZM58.8823 134.353V137.407H68.8823V134.353H58.8823ZM58.8823 137.407C58.8823 135.131 60.7342 133.279 63.0097 133.279V143.279C66.2571 143.279 68.8823 140.654 68.8823 137.407H58.8823Z" fill="#00D37F" mask="url(#path-77-inside-1_155_4916)"/>
<path d="M42.322 134.373H51.4153" stroke="#00D37F" stroke-width="6" stroke-miterlimit="10" stroke-linecap="round" stroke-linejoin="round"/>
<path d="M74.517 134.373H83.6102" stroke="#00D37F" stroke-width="6" stroke-miterlimit="10" stroke-linecap="round" stroke-linejoin="round"/>
</svg>
