<svg width="267" height="266" viewBox="0 0 267 266" fill="none" xmlns="http://www.w3.org/2000/svg">
<path d="M71.292 36.5446C71.292 56.2313 55.3328 72.1906 35.646 72.1906C15.9593 72.1906 0 56.2313 0 36.5446C0 16.8578 15.9593 0.89856 35.646 0.89856C55.3328 0.89856 71.292 16.8578 71.292 36.5446Z" fill="#D5F900"/>
<path d="M266.407 150.049C266.407 169.736 250.448 185.695 230.761 185.695C211.074 185.695 195.115 169.736 195.115 150.049C195.115 130.362 211.074 114.403 230.761 114.403C250.448 114.403 266.407 130.362 266.407 150.049Z" fill="#D5F900"/>
<path d="M125.23 230.253C125.23 249.939 109.271 265.899 89.5841 265.899C69.8973 265.899 53.938 249.939 53.938 230.253C53.938 210.566 69.8973 194.607 89.5841 194.607C109.271 194.607 125.23 210.566 125.23 230.253Z" fill="#D5F900"/>
<path d="M235.813 196.94L248.733 212.89L219.623 239.767C219.623 239.767 216.194 236.018 218.427 232.19C219.544 230.196 220.581 226.687 220.82 222.859C220.82 222.62 220.82 222.301 220.9 222.062C220.979 221.105 220.979 220.148 220.9 219.191C220.9 218.951 220.82 218.632 220.82 218.393C220.581 216.24 220.022 214.166 219.065 212.412L235.813 196.94Z" fill="#1A1A33"/>
<path d="M228.396 218.154C225.924 218.473 223.372 218.872 220.9 219.27C220.9 219.031 220.82 218.712 220.82 218.473C223.292 218.154 225.765 217.755 228.237 217.436C228.715 217.356 228.875 218.154 228.396 218.154Z" fill="white"/>
<path d="M227.679 222.62C225.446 222.699 223.133 222.779 220.9 222.859C220.9 222.62 220.9 222.301 220.98 222.061C223.213 221.982 225.525 221.902 227.758 221.822C228.237 221.822 228.157 222.62 227.679 222.62Z" fill="white"/>
<path d="M180.067 216.878L178.711 237.374H139.074C139.074 237.374 139.074 232.35 143.301 230.994C145.454 230.356 148.644 228.362 151.435 225.81C151.595 225.65 151.834 225.491 151.994 225.252C152.632 224.614 153.35 223.896 153.908 223.178C154.067 222.939 154.227 222.779 154.386 222.54C155.662 220.786 156.699 218.872 157.098 216.958H180.067V216.878Z" fill="#1A1A33"/>
<path d="M222.415 169.026C218.348 154.671 211.728 114.556 211.728 114.556L188.839 119.819C188.201 117.506 187.723 116.071 187.723 116.071L164.595 124.923C164.595 143.585 154.227 217.914 154.227 217.914L184.214 222.141C184.214 222.141 187.643 189.682 189.876 164.879C198.33 193.75 212.605 214.804 218.348 218.393L240.2 200.449C240.279 200.369 226.482 183.382 222.415 169.026Z" fill="white"/>
<path d="M184.772 222.779L153.509 218.393L153.589 217.835C153.669 217.117 163.957 143.267 163.957 124.924V124.525L188.042 115.274L188.201 115.912C188.201 115.912 188.6 117.188 189.158 119.181L212.127 113.918L212.207 114.556C212.286 114.954 218.906 154.831 222.893 169.026C226.881 183.063 240.519 199.97 240.598 200.13L240.997 200.608L218.348 219.191L217.949 218.951C212.446 215.602 198.808 195.903 190.115 168.069C187.882 192.155 184.772 221.982 184.692 222.301L184.772 222.779ZM154.865 217.356L183.655 221.344C184.134 216.718 187.165 187.369 189.238 164.72L189.557 161.609L190.434 164.64C198.808 193.112 212.526 213.528 218.268 217.516L239.322 200.21C237.089 197.338 225.366 182.106 221.697 169.106C217.949 155.867 211.967 120.298 211.09 115.194L188.281 120.378L188.122 119.819C187.723 118.384 187.404 117.347 187.244 116.709L165.153 125.322C165.073 143.506 155.822 210.338 154.865 217.356Z" fill="#1A1A33"/>
<path d="M205.428 120.617C205.189 120.617 204.949 120.457 204.87 120.218C204.551 119.5 204.232 118.783 203.913 118.065C203.753 117.746 203.913 117.427 204.232 117.267C204.551 117.108 204.87 117.267 205.029 117.586C205.348 118.304 205.667 119.022 205.986 119.819C206.146 120.138 205.986 120.457 205.667 120.617C205.587 120.537 205.508 120.617 205.428 120.617Z" fill="#1A1A33"/>
<path d="M228.157 197.897C227.918 197.897 227.759 197.817 227.599 197.578C226.802 196.222 226.004 194.706 225.207 193.111C225.047 192.792 225.207 192.473 225.446 192.314C225.765 192.154 226.084 192.314 226.243 192.553C227.041 194.148 227.838 195.584 228.636 196.94C228.795 197.259 228.716 197.578 228.397 197.737C228.317 197.817 228.237 197.897 228.157 197.897ZM223.532 188.885C223.293 188.885 223.053 188.725 222.973 188.566C222.256 187.05 221.618 185.535 220.9 183.94C220.74 183.621 220.9 183.302 221.219 183.142C221.538 182.983 221.857 183.142 222.016 183.461C222.654 185.056 223.372 186.572 224.01 188.087C224.17 188.406 224.01 188.725 223.691 188.885C223.691 188.805 223.612 188.885 223.532 188.885ZM219.624 179.554C219.385 179.554 219.145 179.394 219.066 179.155C218.507 177.64 218.029 176.045 217.471 174.29C217.391 173.971 217.55 173.652 217.869 173.572C218.188 173.492 218.507 173.652 218.587 173.971C219.066 175.646 219.624 177.321 220.102 178.756C220.182 179.075 220.023 179.394 219.783 179.554C219.783 179.474 219.704 179.554 219.624 179.554ZM216.833 169.824C216.593 169.824 216.354 169.664 216.274 169.345C215.876 167.83 215.557 166.155 215.158 164.401C215.078 164.082 215.317 163.763 215.636 163.683C215.955 163.603 216.274 163.842 216.354 164.161C216.753 165.916 217.072 167.591 217.471 169.106C217.55 169.425 217.311 169.744 216.992 169.824C216.912 169.824 216.833 169.824 216.833 169.824ZM214.759 159.855C214.44 159.855 214.201 159.616 214.201 159.376C213.882 157.702 213.563 156.106 213.323 154.432C213.244 154.113 213.483 153.794 213.802 153.714C214.121 153.634 214.44 153.873 214.52 154.192C214.839 155.867 215.078 157.542 215.397 159.137C215.477 159.456 215.238 159.775 214.919 159.855C214.839 159.855 214.839 159.855 214.759 159.855ZM213.004 149.966C212.685 149.966 212.446 149.726 212.446 149.487C212.127 147.812 211.808 146.137 211.569 144.542C211.489 144.223 211.728 143.904 212.047 143.825C212.366 143.745 212.685 143.984 212.765 144.303C213.084 145.978 213.403 147.653 213.642 149.328C213.722 149.647 213.483 149.966 213.164 150.045C213.084 149.966 213.004 149.966 213.004 149.966ZM211.09 139.997C210.851 139.997 210.532 139.837 210.532 139.518C210.133 137.763 209.814 136.168 209.416 134.573C209.336 134.254 209.575 133.935 209.894 133.856C210.213 133.776 210.532 134.015 210.612 134.334C211.011 135.929 211.33 137.524 211.728 139.279C211.808 139.598 211.569 139.917 211.25 139.997C211.17 139.997 211.17 139.997 211.09 139.997ZM208.698 130.187C208.459 130.187 208.219 130.028 208.14 129.788C207.661 128.113 207.183 126.518 206.624 125.003C206.545 124.684 206.704 124.365 207.023 124.206C207.342 124.126 207.661 124.285 207.821 124.604C208.299 126.12 208.857 127.794 209.336 129.469C209.416 129.788 209.256 130.107 208.937 130.187C208.857 130.107 208.778 130.187 208.698 130.187Z" fill="#1A1A33"/>
<path d="M232.305 204.037C232.145 204.037 231.985 203.958 231.826 203.878C231.826 203.878 231.268 203.24 230.311 201.884C230.151 201.645 230.151 201.246 230.47 201.087C230.709 200.927 231.108 200.927 231.268 201.246C232.145 202.522 232.624 203.08 232.703 203.08C232.943 203.32 232.942 203.718 232.623 203.958C232.544 203.958 232.384 204.037 232.305 204.037Z" fill="#1A1A33"/>
<path d="M160.208 227.485C158.135 226.05 156.061 224.614 153.988 223.178C154.147 222.939 154.307 222.78 154.466 222.54C156.54 223.976 158.613 225.411 160.607 226.767C161.006 227.086 160.607 227.724 160.208 227.485Z" fill="white"/>
<path d="M156.619 230.196C154.945 228.681 153.19 227.245 151.436 225.73C151.595 225.571 151.834 225.411 151.994 225.172C153.669 226.687 155.423 228.123 157.178 229.558C157.576 230.037 157.018 230.595 156.619 230.196Z" fill="white"/>
<path d="M189.318 159.456C189.079 159.456 188.839 159.297 188.759 159.057C187.085 154.99 185.171 137.764 184.772 134.653C183.974 134.573 181.981 134.254 178.392 133.537C178.073 133.457 177.833 133.138 177.913 132.819C177.993 132.5 178.312 132.261 178.631 132.34C183.496 133.297 185.33 133.537 185.33 133.537L185.809 133.616L185.888 134.095C185.888 134.334 188.122 154.432 189.796 158.659C189.956 158.978 189.796 159.297 189.477 159.456C189.477 159.456 189.398 159.456 189.318 159.456Z" fill="#1A1A33"/>
<path d="M172.092 66.5453C164.037 69.2569 157.337 74.7598 159.092 97.888C160.847 121.016 161.325 126.997 161.325 126.997L213.164 119.66C213.164 119.581 198.011 57.7726 172.092 66.5453Z" fill="#00D37F"/>
<path d="M160.767 127.635L160.687 126.997C160.687 126.918 160.129 120.777 158.454 97.8879C156.779 75.7168 162.601 69.0974 171.852 65.9871C176.318 64.4718 180.784 64.9503 185.091 67.2631C203.195 77.2321 213.323 117.666 213.722 119.421L213.882 120.059L160.767 127.635ZM172.251 67.1036C165.233 69.4961 157.896 73.9622 159.65 97.8081C161.086 116.709 161.644 124.206 161.803 126.28L212.366 119.102C211.011 113.838 200.962 77.3916 184.533 68.3796C180.545 66.1466 176.398 65.7478 172.251 67.1036Z" fill="#00D37F"/>
<path d="M193.704 97.8877C200.722 97.8877 207.661 97.8079 214.679 97.7281C212.685 82.4955 199.845 65.1095 179.11 63.2752V77.9496C186.128 78.1889 192.747 89.2744 193.704 97.8877Z" fill="#00D37F"/>
<path d="M193.146 98.446L193.066 97.8877C192.109 89.2745 185.57 78.6674 179.03 78.4282H178.472V62.5575L179.11 62.6373C199.925 64.4716 213.244 82.017 215.237 97.6484L215.317 98.2865H214.679C207.82 98.3662 200.723 98.446 193.704 98.446H193.146ZM179.668 77.3116C186.527 78.1092 192.987 88.3972 194.183 97.2497C200.802 97.2497 207.422 97.17 213.961 97.0902C211.728 82.3361 199.128 65.9868 179.668 63.9133V77.3116Z" fill="#00D37F"/>
<path d="M199.606 46.5272L205.029 32.0123C207.262 26.0309 199.446 23.0801 197.213 29.0615L191.87 43.3372C194.502 44.3739 197.054 45.4107 199.606 46.5272Z" fill="#1A1A33"/>
<path d="M122.326 238.331C121.289 237.932 120.811 236.736 121.209 235.779L126.074 223.417C126.473 222.381 127.669 221.902 128.626 222.301C129.663 222.7 130.142 223.896 129.743 224.853L124.878 237.215C124.559 238.251 123.363 238.73 122.326 238.331Z" fill="#1A1A33"/>
<path d="M145.135 212.172L205.427 50.5945C210.851 36.3189 188.6 27.7855 183.177 42.1408L122.884 203.719C120.172 210.896 119.774 228.761 125.277 230.914C130.939 233.067 142.423 219.35 145.135 212.172Z" fill="white"/>
<path d="M126.633 231.712C126.154 231.712 125.596 231.632 125.197 231.472C119.136 229.16 119.614 210.896 122.406 203.559L182.698 41.9813C185.649 34.2453 193.066 32.9693 198.649 35.1226C204.311 37.2759 209.017 43.0978 206.066 50.8338L145.773 212.412C144.338 216.16 140.749 221.344 136.761 225.491C134.369 227.963 130.062 231.712 126.633 231.712ZM193.704 35.3619C189.717 35.3619 185.729 37.3557 183.815 42.3801L123.522 203.958C120.651 211.534 120.731 228.522 125.596 230.356C127.749 231.153 131.657 229.08 135.964 224.614C139.792 220.706 143.381 215.522 144.657 212.013L204.949 50.435C207.581 43.4169 203.354 38.1532 198.25 36.2391C196.814 35.6809 195.219 35.3619 193.704 35.3619Z" fill="#1A1A33"/>
<path d="M181.901 45.7296L179.189 53.0668C186.526 56.0974 193.864 59.128 201.121 62.2383L203.912 54.6619C196.655 51.6313 189.318 48.6007 181.901 45.7296Z" fill="#1A1A33"/>
<path d="M141.786 218.313C143.301 216.08 144.497 213.927 145.135 212.172L165.313 158.18C157.975 155.15 150.638 152.199 143.141 149.487L122.884 203.798C122.406 205.154 121.927 206.909 121.608 208.823C128.308 212.093 135.007 215.283 141.786 218.313Z" fill="#1A1A33"/>
<path d="M210.053 84.1703C204.152 87.2807 198.33 90.4707 192.986 94.4583C194.342 99.5625 194.183 104.427 191.551 106.66C188.042 109.691 183.017 109.452 178.073 107.777C176.637 99.5625 172.41 97.4092 167.944 95.7344C164.435 94.4584 164.196 97.8877 169.619 101.955L169.699 103.789C168.423 103.072 167.306 102.274 166.269 101.556C159.57 96.7712 158.932 102.354 158.932 102.354C154.546 102.753 155.902 107.378 155.902 107.378C153.031 110.648 153.589 112.482 166.588 122.132C181.582 133.218 209.894 132.341 214.519 106.581C215.795 99.8017 214.2 91.5873 210.053 84.1703Z" fill="white"/>
<path d="M187.643 129.549C180.067 129.549 172.251 127.157 166.27 122.691C157.098 115.832 154.147 113.041 153.908 110.568C153.748 109.292 154.466 108.255 155.264 107.298C155.104 106.581 154.865 104.826 155.822 103.47C156.38 102.593 157.258 102.115 158.534 101.875C158.693 101.158 159.172 99.8815 160.448 99.3232C161.963 98.6055 164.036 99.2435 166.668 101.078C167.466 101.636 168.263 102.194 169.141 102.673V102.194C165.951 99.722 164.355 97.0902 165.153 95.5749C165.392 95.1761 166.19 94.2989 168.263 95.0964C172.889 96.8509 177.196 99.084 178.711 107.219C184.214 108.893 188.441 108.574 191.312 106.102C193.545 104.188 194.023 99.8815 192.508 94.4583L192.428 94.0596L192.747 93.8203C198.41 89.6732 204.551 86.3237 209.894 83.5323L210.452 83.293L210.771 83.7716C214.918 91.348 216.593 99.6423 215.317 106.66C213.004 119.421 205.268 125.003 199.287 127.396C195.539 128.832 191.631 129.549 187.643 129.549ZM161.724 100.36C161.405 100.36 161.086 100.44 160.846 100.52C159.73 100.998 159.57 102.513 159.57 102.513L159.491 102.992L159.012 103.072C157.975 103.151 157.178 103.55 156.779 104.188C155.981 105.384 156.46 107.298 156.46 107.298L156.54 107.617L156.301 107.857C155.264 108.973 154.945 109.691 155.024 110.489C155.264 112.482 158.374 115.433 166.908 121.734C175.76 128.353 188.839 130.267 198.569 126.359C204.311 124.046 211.648 118.783 213.882 106.581C215.078 99.9612 213.563 92.1455 209.734 84.9679C204.63 87.5997 198.888 90.7898 193.545 94.6976C195.06 100.44 194.422 104.986 191.87 107.139C188.6 109.93 183.735 110.329 177.754 108.415L177.435 108.335L177.355 108.016C175.999 100.2 172.171 98.1269 167.625 96.4521C166.668 96.0534 166.11 96.2129 165.951 96.4521C165.631 96.9306 166.27 99.0042 169.858 101.716L170.098 101.875L170.177 105.065L169.22 104.507C168.024 103.789 166.828 102.992 165.791 102.274C164.196 100.918 162.76 100.36 161.724 100.36Z" fill="#1A1A33"/>
<path d="M161.724 105.225C160.926 104.587 160.368 103.789 160.049 102.753C159.889 102.274 159.171 102.434 159.251 102.992C159.57 104.108 160.208 105.066 161.086 105.783C161.564 106.102 162.122 105.544 161.724 105.225Z" fill="#1A1A33"/>
<path d="M158.773 110.09C157.816 109.851 157.098 109.133 156.859 108.176C156.699 107.697 155.981 107.857 156.061 108.415C156.38 109.611 157.337 110.568 158.533 110.887C159.092 110.967 159.331 110.17 158.773 110.09Z" fill="#1A1A33"/>
<path d="M152.791 131.144C148.724 121.175 147.608 105.623 161.883 89.9122C162.441 89.354 162.92 88.7957 163.398 88.2374C164.834 81.618 166.589 75.1581 169.619 69.0172C169.141 68.2994 168.662 67.9804 168.662 67.9804C154.466 74.4403 135.964 84.4891 130.7 111.047C127.35 127.635 133.332 141.352 141.865 146.935C147.129 150.364 151.356 154.91 154.386 153.714C154.386 153.714 158.055 154.272 160.368 150.524C160.368 150.524 164.196 150.444 163.797 146.696C163.558 144.702 161.245 141.99 158.853 139.199L160.288 138.322C162.76 140.475 167.865 142.23 166.509 138.242C165.153 134.653 160.767 132.34 152.791 131.144Z" fill="white"/>
<path d="M153.27 154.512C151.037 154.512 148.485 152.598 145.614 150.365C144.338 149.408 142.982 148.371 141.466 147.414C133.252 141.991 126.473 128.592 130.062 110.887C135.086 85.7656 151.436 75.1585 168.343 67.4226L168.662 67.2631L168.901 67.4226C168.981 67.4226 169.459 67.8213 170.018 68.6189L170.257 68.9378L170.098 69.2569C166.907 75.7168 165.233 82.4957 163.957 88.3176V88.4771L163.877 88.5569C163.398 89.1152 162.92 89.6734 162.362 90.3114C146.65 107.697 150.638 124.047 153.27 130.586C161.325 131.783 165.711 134.255 166.987 138.083C167.545 139.758 167.067 140.555 166.509 140.954C165.073 141.911 161.963 140.555 160.128 139.12L159.57 139.439C161.963 142.15 164.036 144.702 164.196 146.696C164.355 147.972 164.036 149.009 163.319 149.807C162.441 150.843 161.086 151.083 160.527 151.162C158.374 154.512 155.104 154.432 154.307 154.432C153.988 154.432 153.589 154.512 153.27 154.512ZM168.502 68.6986C151.994 76.275 136.123 86.7226 131.178 111.127C127.749 128.194 134.448 141.433 142.104 146.457C143.62 147.414 144.976 148.451 146.331 149.487C149.521 151.88 152.233 153.954 154.147 153.236L154.307 153.156H154.466C154.626 153.156 157.816 153.555 159.809 150.205L159.969 149.886H160.288C160.288 149.886 161.724 149.807 162.601 148.929C163.079 148.371 163.239 147.653 163.159 146.776C163 145.021 160.687 142.31 158.294 139.598L157.816 139.04L160.288 137.604L160.607 137.923C162.441 139.518 165.153 140.476 165.871 139.997C166.269 139.758 166.03 138.881 165.871 138.561C164.754 135.132 160.447 132.899 152.791 131.783L152.472 131.703L152.313 131.384C149.601 124.844 145.135 107.697 161.484 89.5139C161.963 88.9557 162.441 88.4771 162.84 87.9189C164.036 82.1767 165.791 75.4775 168.901 69.0974C168.742 68.9378 168.582 68.7783 168.502 68.6986Z" fill="#1A1A33"/>
<path d="M153.748 101.875C155.583 97.9672 158.214 95.3354 161.883 91.3478C162.441 90.7895 163.159 91.3478 163.638 90.7098C165.073 84.0903 166.509 75.0783 169.539 69.0172C169.061 68.2994 168.582 67.9804 168.582 67.9804C159.251 72.2073 148.006 78.1089 139.951 89.1945C144.417 93.5011 149.123 97.6482 153.748 101.875Z" fill="#00D37F"/>
<path d="M153.987 102.832L153.429 102.274C152.472 101.397 151.515 100.599 150.638 99.7218C146.969 96.452 143.221 93.0226 139.632 89.5933L139.233 89.1945L139.552 88.7958C147.448 78.0292 158.055 72.1276 168.423 67.4222L168.742 67.2627L168.981 67.4222C169.061 67.4222 169.539 67.821 170.097 68.6185L170.337 68.9375L170.177 69.2565C167.705 74.2809 166.269 81.2193 164.993 87.3602C164.754 88.5565 164.515 89.673 164.276 90.7896V90.9491L164.196 91.0288C163.797 91.5073 163.239 91.5074 162.92 91.5074C162.601 91.5074 162.521 91.5073 162.441 91.5871C161.963 92.0656 161.564 92.5441 161.085 93.0226C158.135 96.2925 155.981 98.6053 154.386 101.955L153.987 102.832ZM140.749 89.1148C144.178 92.4644 147.847 95.7342 151.356 98.8445C152.073 99.4825 152.871 100.2 153.589 100.838C155.184 97.728 157.417 95.3355 160.128 92.3049C160.527 91.8264 161.006 91.3478 161.484 90.8693C161.963 90.3908 162.441 90.3908 162.84 90.3908C162.999 90.3908 163.079 90.3908 163.159 90.3908C163.398 89.354 163.558 88.3173 163.797 87.2007C164.993 81.1396 166.429 74.2011 168.901 69.097C168.742 68.9375 168.662 68.778 168.502 68.6982C158.533 73.2441 148.325 78.9065 140.749 89.1148Z" fill="#00D37F"/>
<path d="M159.889 150.046C158.294 147.095 156.46 144.224 154.386 141.512C154.067 141.113 153.35 141.512 153.669 141.911C155.742 144.622 157.497 147.414 159.171 150.444C159.49 150.923 160.128 150.524 159.889 150.046Z" fill="#1A1A33"/>
<path d="M155.264 152.837C153.828 149.487 151.675 146.616 148.724 144.463C148.325 144.144 147.926 144.862 148.325 145.181C151.116 147.174 153.19 149.886 154.546 153.076C154.705 153.475 155.423 153.315 155.264 152.837Z" fill="#1A1A33"/>
<path d="M158.693 92.3049C158.374 92.3049 158.135 92.0656 158.135 91.8264L157.337 87.2008C157.257 86.8818 157.497 86.5627 157.816 86.483C158.135 86.4032 158.454 86.6425 158.533 86.9615L159.331 91.5871C159.411 91.9061 159.171 92.2252 158.852 92.3049C158.693 92.3049 158.693 92.3049 158.693 92.3049Z" fill="#1A1A33"/>
<path d="M175.282 53.1465C175.202 50.3552 172.411 48.6804 169.3 50.1956C168.822 50.4349 168.423 50.7539 167.945 51.1527C167.945 51.1527 167.945 51.1527 167.865 51.0729C163.478 46.4473 156.54 45.8093 152.393 49.7171C148.246 53.625 149.203 59.9254 152.712 65.2688C155.982 70.0539 162.761 72.606 168.184 66.6246C169.938 64.6308 170.975 61.999 171.055 59.2874C173.926 58.4101 175.282 55.6188 175.282 53.1465Z" fill="white"/>
<path d="M161.166 70.7718C160.926 70.7718 160.767 70.7718 160.527 70.7718C157.337 70.5326 154.307 68.6185 152.313 65.6677C148.166 59.5268 148.086 53.1466 152.074 49.3982C154.227 47.4044 157.098 46.4474 160.208 46.6867C163.159 46.9259 165.871 48.2817 168.024 50.435C168.343 50.1958 168.742 49.9565 169.061 49.797C170.736 48.9197 172.49 48.9197 173.846 49.7173C175.042 50.435 175.84 51.7111 175.84 53.2264C175.92 55.6189 174.644 58.6495 171.613 59.8458C171.454 62.5574 170.417 65.1094 168.662 67.1032C165.951 70.054 163.159 70.7718 161.166 70.7718ZM159.092 47.8032C156.699 47.8032 154.466 48.6805 152.792 50.1958C148.485 54.2631 150.319 60.6433 153.19 64.9499C155.025 67.6615 157.736 69.3363 160.527 69.4958C163.159 69.6553 165.632 68.5388 167.705 66.226C169.38 64.3917 170.337 61.9193 170.417 59.2875V58.8888L170.815 58.7292C173.447 57.852 174.644 55.2201 174.564 53.1466C174.564 52.1098 174.006 51.1528 173.128 50.6743C172.092 50.0363 170.736 50.116 169.46 50.754C169.061 50.9933 168.662 51.2326 168.184 51.6313L167.785 52.0301L167.386 51.6313C165.313 49.478 162.681 48.1222 159.889 47.883C159.73 47.8032 159.411 47.8032 159.092 47.8032Z" fill="#1A1A33"/>
<path d="M159.507 60.0046C159.687 59.6026 159.507 59.1307 159.105 58.9507C158.703 58.7707 158.232 58.9507 158.052 59.3527C157.872 59.7547 158.052 60.2265 158.454 60.4065C158.856 60.5865 159.327 60.4066 159.507 60.0046Z" fill="#1A1A33"/>
<path d="M156.859 66.1465C155.822 64.7109 155.025 63.1159 154.387 61.4411C154.227 60.9626 154.945 60.6436 155.105 61.1221C155.663 62.7171 156.46 64.2324 157.417 65.668C157.816 66.0667 157.178 66.5452 156.859 66.1465Z" fill="#1A1A33"/>
<path d="M151.356 56.4166C153.749 55.5393 161.086 49.1591 163.877 53.7847C164.595 54.981 164.595 55.938 165.951 55.619C167.227 55.0608 166.988 53.4657 166.988 53.4657C167.945 52.1099 168.264 50.7541 169.3 50.1958C172.171 45.5702 165.073 39.8281 161.086 43.2574C161.086 43.2574 152.233 41.1041 149.681 46.607C145.135 48.4413 143.461 51.9504 144.418 55.2203C146.092 60.8029 151.356 56.4166 151.356 56.4166Z" fill="#1A1A33"/>
<path d="M168.742 55.938C168.662 54.0239 169.859 52.3491 171.693 51.7909C172.171 51.6314 172.49 52.4289 172.012 52.5087C170.576 52.9074 169.539 54.2632 169.619 55.7785C169.539 56.4165 168.742 56.4963 168.742 55.938Z" fill="#1A1A33"/>
<path d="M62.6641 29.4745C48.4869 37.0133 34.899 39.6587 21.8729 37.6539V87.1282C21.8729 105.127 32.8115 121.089 48.9991 126.716L62.6696 131.466L76.3401 126.716C92.5276 121.089 103.466 105.127 103.466 87.1282V37.6539C90.4347 39.6587 76.8413 37.0133 62.6641 29.4745Z" stroke="#1A1A33" stroke-width="5" stroke-miterlimit="10" stroke-linecap="round" stroke-linejoin="round"/>
<path d="M62.6641 44.4661C52.7584 49.7748 43.2647 51.6406 34.1611 50.2245V86.7135C34.1611 99.391 41.8033 110.636 53.1155 114.601L62.6696 117.949L72.2237 114.601C83.5359 110.636 91.1781 99.391 91.1781 86.7135V50.2245C82.069 51.6406 72.5753 49.7748 62.6641 44.4661Z" stroke="#00D37F" stroke-width="6" stroke-miterlimit="10" stroke-linecap="round" stroke-linejoin="round"/>
<path d="M111.331 72.2372H14.0085V100.5H111.331V72.2372Z" fill="white"/>
<path d="M19.9492 95.0508V77.6864H105.39V95.0508H19.9492Z" fill="white" stroke="#00D37F" stroke-width="5"/>
<path d="M24.8221 86.3286L31.4537 86.3286" stroke="#1A1A33" stroke-width="5" stroke-linecap="round" stroke-linejoin="round"/>
<path d="M28.176 89.6824L28.176 83.0509" stroke="#1A1A33" stroke-width="5" stroke-linecap="round" stroke-linejoin="round"/>
<path d="M30.6151 83.8892L25.9259 88.5784" stroke="#1A1A33" stroke-width="5" stroke-linecap="round" stroke-linejoin="round"/>
<path d="M25.8892 83.8892L30.5784 88.5784" stroke="#1A1A33" stroke-width="5" stroke-linecap="round" stroke-linejoin="round"/>
<path d="M59.4143 86.3286L66.0459 86.3286" stroke="#1A1A33" stroke-width="5" stroke-linecap="round" stroke-linejoin="round"/>
<path d="M62.7682 89.6824L62.7682 83.0509" stroke="#1A1A33" stroke-width="5" stroke-linecap="round" stroke-linejoin="round"/>
<path d="M65.2073 83.8892L60.5181 88.5784" stroke="#1A1A33" stroke-width="5" stroke-linecap="round" stroke-linejoin="round"/>
<path d="M60.4814 83.8892L65.1707 88.5784" stroke="#1A1A33" stroke-width="5" stroke-linecap="round" stroke-linejoin="round"/>
<path d="M77.4153 86.3286L84.0469 86.3286" stroke="#1A1A33" stroke-width="5" stroke-linecap="round" stroke-linejoin="round"/>
<path d="M80.7692 89.6824L80.7692 83.0509" stroke="#1A1A33" stroke-width="5" stroke-linecap="round" stroke-linejoin="round"/>
<path d="M83.2084 83.8892L78.5191 88.5784" stroke="#1A1A33" stroke-width="5" stroke-linecap="round" stroke-linejoin="round"/>
<path d="M78.4825 83.8892L83.1717 88.5784" stroke="#1A1A33" stroke-width="5" stroke-linecap="round" stroke-linejoin="round"/>
<path d="M42.0255 86.3286L48.6571 86.3286" stroke="#1A1A33" stroke-width="5" stroke-linecap="round" stroke-linejoin="round"/>
<path d="M45.3794 89.6824L45.3794 83.0509" stroke="#1A1A33" stroke-width="5" stroke-linecap="round" stroke-linejoin="round"/>
<path d="M47.8185 83.8892L43.1293 88.5784" stroke="#1A1A33" stroke-width="5" stroke-linecap="round" stroke-linejoin="round"/>
<path d="M43.0927 83.8892L47.7819 88.5784" stroke="#1A1A33" stroke-width="5" stroke-linecap="round" stroke-linejoin="round"/>
<path d="M95.1103 86.3286L101.742 86.3286" stroke="#1A1A33" stroke-width="5" stroke-linecap="round" stroke-linejoin="round"/>
<path d="M98.4642 89.6824L98.4642 83.0509" stroke="#1A1A33" stroke-width="5" stroke-linecap="round" stroke-linejoin="round"/>
<path d="M100.903 83.8892L96.2141 88.5784" stroke="#1A1A33" stroke-width="5" stroke-linecap="round" stroke-linejoin="round"/>
<path d="M96.1774 83.8892L100.867 88.5784" stroke="#1A1A33" stroke-width="5" stroke-linecap="round" stroke-linejoin="round"/>
<path d="M58.6601 59.7034C58.2947 59.7034 58.0001 59.4148 58.0001 59.057V56.1602C58.0001 53.5056 60.2043 51.3474 62.9153 51.3474C65.6264 51.3474 67.8306 53.5056 67.8306 56.1602V59.057C67.8306 59.4148 67.5359 59.7034 67.1705 59.7034" stroke="#1A1A33" stroke-width="5" stroke-miterlimit="10" stroke-linecap="round" stroke-linejoin="round"/>
<path d="M69.0594 59.7034H56.2797V71.0085H69.0594V59.7034Z" stroke="#1A1A33" stroke-width="5" stroke-miterlimit="10" stroke-linecap="round" stroke-linejoin="round"/>
<path d="M61.8479 64.2479C61.8479 63.77 62.2353 63.3826 62.7132 63.3826C63.1911 63.3826 63.5785 63.77 63.5785 64.2479C63.5785 64.7258 63.1911 65.1132 62.7132 65.1132C62.2353 65.1132 61.8479 64.7258 61.8479 64.2479Z" fill="#00D37F" stroke="#00D37F" stroke-width="5"/>
<mask id="path-70-inside-1_41_2229" fill="white">
<path d="M62.7132 68.2793C62.2327 68.2793 61.8406 67.8872 61.8406 67.4067V64.3527H63.5857V67.4067C63.5857 67.8927 63.1992 68.2793 62.7132 68.2793Z"/>
</mask>
<path d="M62.7132 68.2793C62.2327 68.2793 61.8406 67.8872 61.8406 67.4067V64.3527H63.5857V67.4067C63.5857 67.8927 63.1992 68.2793 62.7132 68.2793Z" fill="#00D37F"/>
<path d="M61.8406 64.3527V59.3527H56.8406V64.3527H61.8406ZM63.5857 64.3527H68.5857V59.3527H63.5857V64.3527ZM62.7132 63.2793C64.9941 63.2793 66.8406 65.1258 66.8406 67.4067H56.8406C56.8406 70.6486 59.4713 73.2793 62.7132 73.2793V63.2793ZM66.8406 67.4067V64.3527H56.8406V67.4067H66.8406ZM61.8406 69.3527H63.5857V59.3527H61.8406V69.3527ZM58.5857 64.3527V67.4067H68.5857V64.3527H58.5857ZM58.5857 67.4067C58.5857 65.1313 60.4377 63.2793 62.7132 63.2793V73.2793C65.9606 73.2793 68.5857 70.6541 68.5857 67.4067H58.5857Z" fill="#00D37F" mask="url(#path-70-inside-1_41_2229)"/>
<path d="M42.0255 64.3729H51.1187" stroke="#00D37F" stroke-width="6" stroke-miterlimit="10" stroke-linecap="round" stroke-linejoin="round"/>
<path d="M74.2204 64.3729H83.3136" stroke="#00D37F" stroke-width="6" stroke-miterlimit="10" stroke-linecap="round" stroke-linejoin="round"/>
</svg>
