<svg width="159" height="39" viewBox="0 0 159 39" fill="none" xmlns="http://www.w3.org/2000/svg">
<path d="M38.896 34.4642V4.43181C38.896 1.98305 36.9104 0 34.4642 0H4.43181C1.98305 0 0 1.98561 0 4.43181C0 4.86168 0.171439 5.27621 0.475934 5.5807L5.36065 10.4654C5.73679 10.8416 6.34578 10.8416 6.72192 10.4654L13.6741 3.5132C14.8819 2.30546 16.8368 2.30546 18.0445 3.5132C19.2139 4.68257 19.2472 6.5556 18.1494 7.76846C18.1111 7.80428 18.0701 7.83499 18.0343 7.87337L10.3989 15.5088L3.787 22.1207C3.71279 22.1949 3.64371 22.2716 3.57974 22.351C2.58693 23.5638 2.65602 25.3575 3.787 26.4911C4.92054 27.6246 6.71424 27.6937 7.92711 26.6983C8.00643 26.6344 8.08319 26.5653 8.1574 26.4911L14.7693 19.8792L18.2979 16.3506C19.5107 15.3578 21.3044 15.4269 22.438 16.5579C23.5715 17.6914 23.6406 19.4851 22.6452 20.698L19.1167 24.2265L12.5048 30.8384C12.4306 30.9126 12.3615 30.9894 12.2975 31.0687C11.3047 32.2816 11.3738 34.0753 12.5048 35.2088C13.6383 36.3424 15.432 36.4115 16.6449 35.4161C16.7242 35.3521 16.801 35.283 16.8752 35.2088L23.4871 28.5969L31.1225 20.9615C31.1583 20.9257 31.1916 20.8848 31.2274 20.8464C32.4761 19.7154 34.4259 19.7845 35.585 21.0588C36.7083 22.2947 36.5752 24.2265 35.3956 25.4087L28.5304 32.2739C28.1543 32.6501 28.1543 33.2591 28.5304 33.6352L33.3179 38.4227C33.6224 38.7272 34.0344 38.8986 34.4668 38.8986C36.913 38.896 38.896 36.913 38.896 34.4642Z" fill="#0050DC"/>
<path d="M57.9231 12.5383C53.1177 12.5383 48.6629 16.5223 48.6629 22.5405C48.6629 28.9861 53.2329 32.7373 58.3914 32.7373C62.9613 32.7373 65.9705 30.0429 66.9863 26.7216L63.1584 25.5113C62.534 27.3869 61.1267 28.8326 58.3914 28.8326C55.5793 28.8326 53.3122 26.7625 53.1945 23.8711H67.104C67.1424 23.7918 67.2217 23.1674 67.2217 22.4254C67.2217 16.4046 63.7853 12.5383 57.9231 12.5383ZM53.3147 20.5473C53.4708 18.5156 55.111 16.3278 57.964 16.3278C61.0909 16.3278 62.575 18.3211 62.6517 20.5473H53.3147Z" fill="#0050DC"/>
<path d="M93.1576 12.5383C90.6526 12.5383 88.388 13.4134 86.8784 15.9568C85.8446 13.6923 83.6185 12.5383 81.075 12.5383C78.8898 12.5383 76.4641 13.572 75.351 15.5576V13.0935H70.9397V32.4507H75.5097V20.9643C75.5097 18.5002 77.0603 16.6707 79.5244 16.6707C82.1472 16.6707 83.2602 18.4183 83.2602 20.6445V32.4482H87.7918V20.9618C87.7918 18.577 89.3808 16.6681 91.8066 16.6681C94.3909 16.6681 95.5424 18.3774 95.5424 20.6419V32.4456H99.9947V19.8845C99.9947 14.7618 96.6555 12.5383 93.1576 12.5383Z" fill="#0050DC"/>
<path d="M106.213 6.16174C104.583 6.16174 103.234 7.51278 103.234 9.1811C103.234 10.8494 104.585 12.1595 106.213 12.1595C107.881 12.1595 109.232 10.8494 109.232 9.1811C109.229 7.51278 107.881 6.16174 106.213 6.16174Z" fill="#0050DC"/>
<path d="M108.515 13.0934H103.945V32.4506H108.515V13.0934Z" fill="#0050DC"/>
<path d="M159 22.4202C159 16.4045 155.561 12.5356 149.701 12.5356C144.896 12.5356 140.441 16.5197 140.441 22.5379C140.441 28.9835 145.011 32.7347 150.17 32.7347C154.74 32.7347 157.749 30.0403 158.765 26.719L154.937 25.5087C154.312 27.3843 152.905 28.83 150.17 28.83C147.358 28.83 145.091 26.7599 144.973 23.8685H158.882C158.921 23.7892 159 23.1648 159 22.4202ZM145.091 20.5472C145.247 18.5155 146.887 16.3278 149.74 16.3278C152.867 16.3278 154.351 18.3211 154.428 20.5472H145.091Z" fill="#0050DC"/>
<path d="M133.911 26.1713V18.8302V17.1875H137.148H137.926V13.0934H137.148H133.911V6.5506H129.738H129.341V11.7782V13.0934H121.332V6.5506H117.159H116.762V11.7782V13.0934H112.489V17.3666H116.762V18.8302V21.3173V26.9262C116.762 30.5417 118.989 32.6886 122.566 32.6886C124.234 32.6886 125.109 32.3713 125.388 32.251V28.4359C125.189 28.4768 124.434 28.5945 123.799 28.5945C122.09 28.5945 121.335 27.8781 121.335 26.1713V18.8302V17.1875H129.344V18.8302V21.3173V26.9262C129.344 30.5417 131.57 32.6886 135.147 32.6886C136.816 32.6886 137.691 32.3713 137.97 32.251V28.4359C137.77 28.4768 137.015 28.5945 136.381 28.5945C134.669 28.5945 133.911 27.8781 133.911 26.1713Z" fill="#0050DC"/>
</svg>
