<svg width="45" height="45" viewBox="0 0 45 45" fill="none" xmlns="http://www.w3.org/2000/svg">
<path d="M33.5436 22.3349C33.5389 22.8412 33.1589 23.2561 32.6702 23.3178L32.5344 23.3257L12.5353 23.1422C11.983 23.1372 11.5394 22.6854 11.5445 22.1331C11.5491 21.6269 11.9292 21.212 12.4178 21.1502L12.5536 21.1423L32.5528 21.3258C33.105 21.3309 33.5486 21.7827 33.5436 22.3349Z" fill="white"/>
<path d="M21.2489 29.5462C21.6367 29.9394 21.6322 30.5726 21.239 30.9604C20.8815 31.3129 20.3257 31.3413 19.9363 31.048L19.8248 30.9504L11.8322 22.8448C11.4786 22.4862 11.4512 21.9285 11.7468 21.539L11.8451 21.4276L19.9851 13.4686C20.38 13.0825 21.0131 13.0897 21.3992 13.4845C21.7502 13.8435 21.7763 14.3994 21.4814 14.7876L21.3833 14.8987L13.9618 22.1561L21.2489 29.5462Z" fill="white"/>
</svg>
