<svg width="42" height="43" viewBox="0 0 42 43" fill="none" xmlns="http://www.w3.org/2000/svg">
<g clip-path="url(#clip0_505_32618)">
<path d="M19.7525 16.1938V20.7232H15.2231V23.1889H19.7525V27.7183H22.2182V23.1889H26.7476V20.7232H22.2182V16.1938H19.7525ZM12.2415 13.2122C7.40608 18.0475 7.40608 25.8646 12.2415 30.7C17.0768 35.5353 24.8939 35.5353 29.7292 30.7C34.5646 25.8646 34.5646 18.0475 29.7292 13.2122C24.8939 8.37678 17.0768 8.37678 12.2415 13.2122ZM27.9805 28.9512C24.1244 32.8072 17.8463 32.8072 13.9902 28.9512C10.1342 25.0951 10.1342 18.817 13.9902 14.9609C17.8463 11.1049 24.1244 11.1049 27.9805 14.9609C31.8365 18.817 31.8365 25.0951 27.9805 28.9512Z" fill="#C6C6CC"/>
</g>
<defs>
<clipPath id="clip0_505_32618">
<rect width="29.6778" height="29.6778" fill="white" transform="translate(0 21.9561) rotate(-45)"/>
</clipPath>
</defs>
</svg>
