<svg width="42" height="42" viewBox="0 0 42 42" fill="none" xmlns="http://www.w3.org/2000/svg">
<g clip-path="url(#clip0_505_32615)">
<path d="M19.7525 15.2231L19.7525 19.7525H15.2231V22.2182H19.7525L19.7525 26.7476L22.2182 26.7476V22.2182L26.7476 22.2182V19.7525L22.2182 19.7525V15.2231L19.7525 15.2231ZM12.2415 12.2415C7.40608 17.0768 7.40608 24.8939 12.2415 29.7292C17.0768 34.5646 24.8939 34.5646 29.7292 29.7292C34.5646 24.8939 34.5646 17.0768 29.7292 12.2415C24.8939 7.40608 17.0768 7.40608 12.2415 12.2415ZM27.9805 27.9805C24.1244 31.8365 17.8463 31.8365 13.9902 27.9805C10.1342 24.1244 10.1342 17.8463 13.9902 13.9902C17.8463 10.1342 24.1244 10.1342 27.9805 13.9902C31.8365 17.8463 31.8365 24.1244 27.9805 27.9805Z" fill="#C6C6CC"/>
</g>
<defs>
<clipPath id="clip0_505_32615">
<rect width="29.6778" height="29.6778" fill="white" transform="translate(0 20.9854) rotate(-45)"/>
</clipPath>
</defs>
</svg>
