<svg width="16" height="16" viewBox="0 0 16 16" fill="none" xmlns="http://www.w3.org/2000/svg">
<g clip-path="url(#clip0_17_504)">
<path d="M12.0001 5.33317H11.3334V3.99984C11.3334 2.15984 9.84008 0.666504 8.00008 0.666504C6.16008 0.666504 4.66675 2.15984 4.66675 3.99984V5.33317H4.00008C3.26675 5.33317 2.66675 5.93317 2.66675 6.6665V13.3332C2.66675 14.0665 3.26675 14.6665 4.00008 14.6665H12.0001C12.7334 14.6665 13.3334 14.0665 13.3334 13.3332V6.6665C13.3334 5.93317 12.7334 5.33317 12.0001 5.33317ZM8.00008 11.3332C7.26675 11.3332 6.66675 10.7332 6.66675 9.99984C6.66675 9.2665 7.26675 8.6665 8.00008 8.6665C8.73341 8.6665 9.33341 9.2665 9.33341 9.99984C9.33341 10.7332 8.73341 11.3332 8.00008 11.3332ZM10.0667 5.33317H5.93341V3.99984C5.93341 2.85984 6.86008 1.93317 8.00008 1.93317C9.14008 1.93317 10.0667 2.85984 10.0667 3.99984V5.33317Z" fill="#818B9B"/>
</g>
<defs>
<clipPath id="clip0_17_504">
<rect width="16" height="16" fill="white"/>
</clipPath>
</defs>
</svg>
