<svg width="17" height="16" viewBox="0 0 17 16" fill="none" xmlns="http://www.w3.org/2000/svg">
<g clip-path="url(#clip0_17_850)">
<path d="M12.5 5.33317H11.8333V3.99984C11.8333 2.15984 10.34 0.666504 8.49996 0.666504C6.65996 0.666504 5.16663 2.15984 5.16663 3.99984V5.33317H4.49996C3.76663 5.33317 3.16663 5.93317 3.16663 6.6665V13.3332C3.16663 14.0665 3.76663 14.6665 4.49996 14.6665H12.5C13.2333 14.6665 13.8333 14.0665 13.8333 13.3332V6.6665C13.8333 5.93317 13.2333 5.33317 12.5 5.33317ZM8.49996 11.3332C7.76663 11.3332 7.16663 10.7332 7.16663 9.99984C7.16663 9.2665 7.76663 8.6665 8.49996 8.6665C9.23329 8.6665 9.83329 9.2665 9.83329 9.99984C9.83329 10.7332 9.23329 11.3332 8.49996 11.3332ZM10.5666 5.33317H6.43329V3.99984C6.43329 2.85984 7.35996 1.93317 8.49996 1.93317C9.63996 1.93317 10.5666 2.85984 10.5666 3.99984V5.33317Z" fill="#818B9B"/>
</g>
<defs>
<clipPath id="clip0_17_850">
<rect width="16" height="16" fill="white" transform="translate(0.5)"/>
</clipPath>
</defs>
</svg>
