<svg width="161" height="39" viewBox="0 0 161 39" fill="none" xmlns="http://www.w3.org/2000/svg">
<path d="M39.7795 34.4642V4.43181C39.7795 1.98305 37.7939 0 35.3477 0H5.31523C2.86648 0 0.883423 1.98561 0.883423 4.43181C0.883423 4.86168 1.05486 5.27621 1.35936 5.5807L6.24407 10.4654C6.62021 10.8416 7.2292 10.8416 7.60535 10.4654L14.5576 3.5132C15.7653 2.30546 17.7202 2.30546 18.928 3.5132C20.0973 4.68257 20.1306 6.5556 19.0329 7.76846C18.9945 7.80428 18.9535 7.83499 18.9177 7.87337L11.2823 15.5088L4.67042 22.1207C4.59622 22.1949 4.52713 22.2716 4.46316 22.351C3.47035 23.5638 3.53944 25.3575 4.67042 26.4911C5.80396 27.6246 7.59767 27.6937 8.81053 26.6983C8.88985 26.6344 8.96662 26.5653 9.04082 26.4911L15.6527 19.8792L19.1813 16.3506C20.3941 15.3578 22.1878 15.4269 23.3214 16.5579C24.4549 17.6914 24.524 19.4851 23.5286 20.698L20.0001 24.2265L13.3882 30.8384C13.314 30.9126 13.2449 30.9894 13.1809 31.0687C12.1881 32.2816 12.2572 34.0753 13.3882 35.2088C14.5217 36.3424 16.3154 36.4115 17.5283 35.4161C17.6076 35.3521 17.6844 35.283 17.7586 35.2088L24.3705 28.5969L32.0059 20.9615C32.0417 20.9257 32.075 20.8848 32.1108 20.8464C33.3595 19.7154 35.3093 19.7845 36.4684 21.0588C37.5917 22.2947 37.4587 24.2265 36.2791 25.4087L29.4138 32.2739C29.0377 32.6501 29.0377 33.2591 29.4138 33.6352L34.2013 38.4227C34.5058 38.7272 34.9178 38.8986 35.3502 38.8986C37.7964 38.896 39.7795 36.913 39.7795 34.4642Z" fill="#0050DC"/>
<path d="M59.0397 12.5381C54.2343 12.5381 49.7794 16.5221 49.7794 22.5403C49.7794 28.9859 54.3494 32.7371 59.5079 32.7371C64.0779 32.7371 67.087 30.0427 68.1029 26.7214L64.2749 25.5111C63.6506 27.3867 62.2432 28.8324 59.5079 28.8324C56.6958 28.8324 54.4287 26.7623 54.311 23.8709H68.2206C68.2589 23.7916 68.3383 23.1672 68.3383 22.4252C68.3383 16.4044 64.9018 12.5381 59.0397 12.5381ZM54.4313 20.547C54.5874 18.5154 56.2276 16.3276 59.0806 16.3276C62.2074 16.3276 63.6915 18.3209 63.7683 20.547H54.4313Z" fill="#0050DC"/>
<path d="M94.2742 12.5381C91.7691 12.5381 89.5046 13.4132 87.9949 15.9566C86.9612 13.6921 84.735 12.5381 82.1916 12.5381C80.0064 12.5381 77.5807 13.5718 76.4676 15.5574V13.0933H72.0563V32.4505H76.6263V20.9641C76.6263 18.5 78.1769 16.6705 80.641 16.6705C83.2637 16.6705 84.3768 18.4181 84.3768 20.6443V32.4479H88.9084V20.9616C88.9084 18.5768 90.4974 16.6679 92.9231 16.6679C95.5075 16.6679 96.659 18.3772 96.659 20.6417V32.4454H101.111V19.8843C101.111 14.7616 97.772 12.5381 94.2742 12.5381Z" fill="#0050DC"/>
<path d="M107.329 6.16151C105.699 6.16151 104.351 7.51254 104.351 9.18087C104.351 10.8492 105.702 12.1593 107.329 12.1593C108.997 12.1593 110.348 10.8492 110.348 9.18087C110.346 7.51254 108.997 6.16151 107.329 6.16151Z" fill="#0050DC"/>
<path d="M109.632 13.0932H105.062V32.4504H109.632V13.0932Z" fill="#0050DC"/>
<path d="M160.117 22.42C160.117 16.4043 156.678 12.5354 150.818 12.5354C146.013 12.5354 141.558 16.5195 141.558 22.5377C141.558 28.9833 146.128 32.7345 151.286 32.7345C155.856 32.7345 158.865 30.0401 159.881 26.7188L156.053 25.5085C155.429 27.3841 154.022 28.8298 151.286 28.8298C148.474 28.8298 146.207 26.7597 146.089 23.8683H159.999C160.037 23.789 160.117 23.1646 160.117 22.42ZM146.207 20.547C146.363 18.5153 148.003 16.3275 150.856 16.3275C153.983 16.3275 155.467 18.3208 155.544 20.547H146.207Z" fill="#0050DC"/>
<path d="M135.028 26.1711V18.83V17.1872H138.265H139.043V13.0932H138.265H135.028V6.55035H130.855H130.458V11.778V13.0932H122.449V6.55035H118.276H117.879V11.778V13.0932H113.606V17.3663H117.879V18.83V21.3171V26.9259C117.879 30.5415 120.105 32.6883 123.682 32.6883C125.351 32.6883 126.226 32.371 126.505 32.2508V28.4356C126.305 28.4766 125.55 28.5943 124.916 28.5943C123.206 28.5943 122.452 27.8778 122.452 26.1711V18.83V17.1872H130.461V18.83V21.3171V26.9259C130.461 30.5415 132.687 32.6883 136.264 32.6883C137.932 32.6883 138.807 32.371 139.086 32.2508V28.4356C138.887 28.4766 138.132 28.5943 137.497 28.5943C135.785 28.5943 135.028 27.8778 135.028 26.1711Z" fill="#0050DC"/>
</svg>
