<svg width="24" height="24" viewBox="0 0 24 24" fill="none" xmlns="http://www.w3.org/2000/svg">
<path d="M24 21.264V2.73437C24 1.22352 22.7748 0 21.2654 0H2.73456C1.2236 0 0 1.2251 0 2.73437C0 2.9996 0.105783 3.25536 0.293665 3.44323L3.30768 6.45705C3.53977 6.68912 3.91553 6.68912 4.14762 6.45705L8.43734 2.16761C9.18255 1.42244 10.3888 1.42244 11.134 2.16761C11.8555 2.88909 11.8761 4.04473 11.1987 4.79305C11.1751 4.81515 11.1498 4.8341 11.1277 4.85778L6.41642 9.56874L2.33669 13.6482C2.2909 13.694 2.24827 13.7413 2.2088 13.7903C1.59621 14.5386 1.63884 15.6453 2.33669 16.3447C3.03612 17.0441 4.14288 17.0867 4.89126 16.4726C4.9402 16.4331 4.98757 16.3905 5.03335 16.3447L9.11309 12.2652L11.2903 10.0881C12.0387 9.4756 13.1455 9.51822 13.8449 10.216C14.5443 10.9154 14.5869 12.0221 13.9728 12.7704L11.7955 14.9475L7.71581 19.027C7.67002 19.0728 7.62739 19.1201 7.58792 19.1691C6.97533 19.9174 7.01796 21.0241 7.71581 21.7235C8.41524 22.4228 9.52201 22.4655 10.2704 21.8513C10.3193 21.8119 10.3667 21.7692 10.4125 21.7235L14.4922 17.644L19.2035 12.933C19.2256 12.9109 19.2461 12.8857 19.2682 12.862C20.0387 12.1642 21.2418 12.2068 21.957 12.993C22.6501 13.7556 22.568 14.9475 21.8401 15.6769L17.6041 19.9126C17.372 20.1447 17.372 20.5205 17.6041 20.7525L20.5581 23.7064C20.746 23.8942 21.0002 24 21.267 24C22.7764 23.9984 24 22.7749 24 21.264Z" fill="white"/>
</svg>
