<svg width="70" height="18" viewBox="0 0 70 18" fill="none" xmlns="http://www.w3.org/2000/svg">
<path d="M17.1241 15.6105V2.38862C17.1241 1.31054 16.2499 0.4375 15.173 0.4375H1.95112C0.873046 0.4375 0 1.31167 0 2.38862C0 2.57787 0.0754763 2.76037 0.209531 2.89442L2.36004 5.04493C2.52564 5.21053 2.79375 5.21053 2.95935 5.04493L6.02008 1.9842C6.55179 1.45248 7.41245 1.45248 7.94416 1.9842C8.45898 2.49901 8.47362 3.32362 7.99035 3.85759C7.97345 3.87336 7.95542 3.88688 7.93965 3.90377L4.57814 7.26528L1.66724 10.1762C1.63457 10.2089 1.60415 10.2427 1.57599 10.2776C1.1389 10.8115 1.16932 11.6012 1.66724 12.1003C2.16628 12.5993 2.95597 12.6297 3.48993 12.1915C3.52485 12.1634 3.55865 12.1329 3.59132 12.1003L6.50222 9.18937L8.05568 7.63591C8.58965 7.19882 9.37934 7.22924 9.87838 7.72715C10.3774 8.2262 10.4078 9.01588 9.96963 9.54985L8.41617 11.1033L5.50526 14.0142C5.47259 14.0469 5.44218 14.0807 5.41401 14.1156C4.97693 14.6496 5.00734 15.4393 5.50526 15.9383C6.00431 16.4373 6.79399 16.4678 7.32796 16.0295C7.36288 16.0014 7.39667 15.971 7.42934 15.9383L10.3402 13.0274L13.7018 9.66588C13.7175 9.65011 13.7322 9.63209 13.7479 9.61519C14.2977 9.11727 15.1561 9.14769 15.6664 9.70869C16.1609 10.2528 16.1024 11.1033 15.583 11.6238L12.5606 14.6462C12.395 14.8118 12.395 15.0799 12.5606 15.2455L14.6683 17.3532C14.8024 17.4872 14.9837 17.5627 15.1741 17.5627C16.2511 17.5616 17.1241 16.6886 17.1241 15.6105Z" fill="white"/>
<path d="M25.2009 5.95605C23.0853 5.95605 21.124 7.71003 21.124 10.3596C21.124 13.1973 23.136 14.8487 25.407 14.8487C27.419 14.8487 28.7437 13.6625 29.191 12.2003L27.5057 11.6675C27.2308 12.4932 26.6113 13.1297 25.407 13.1297C24.169 13.1297 23.1709 12.2183 23.1191 10.9454H29.2428C29.2597 10.9104 29.2946 10.6356 29.2946 10.3089C29.2946 7.65821 27.7817 5.95605 25.2009 5.95605ZM23.172 9.48203C23.2407 8.58758 23.9628 7.62442 25.2189 7.62442C26.5955 7.62442 27.2489 8.50197 27.2827 9.48203H23.172Z" fill="white"/>
<path d="M40.7122 5.95605C39.6093 5.95605 38.6123 6.34132 37.9477 7.46107C37.4926 6.46411 36.5125 5.95605 35.3928 5.95605C34.4307 5.95605 33.3628 6.41116 32.8728 7.28534V6.20051H30.9307V14.7226H32.9426V9.66566C32.9426 8.58083 33.6253 7.77537 34.7101 7.77537C35.8648 7.77537 36.3548 8.54478 36.3548 9.52484V14.7214H38.3499V9.66453C38.3499 8.61462 39.0494 7.77424 40.1174 7.77424C41.2551 7.77424 41.7621 8.52675 41.7621 9.52371V14.7203H43.7222V9.19027C43.7222 6.93499 42.2521 5.95605 40.7122 5.95605Z" fill="white"/>
<path d="M46.4607 3.15137C45.7431 3.15137 45.1494 3.74616 45.1494 4.48065C45.1494 5.21513 45.7442 5.79191 46.4607 5.79191C47.1952 5.79191 47.79 5.21513 47.79 4.48065C47.7888 3.74616 47.1952 3.15137 46.4607 3.15137Z" fill="white"/>
<path d="M47.4758 6.20215H45.4639V14.7242H47.4758V6.20215Z" fill="white"/>
<path d="M69.6989 10.3078C69.6989 7.65934 68.1849 5.95605 65.6052 5.95605C63.4896 5.95605 61.5283 7.71003 61.5283 10.3596C61.5283 13.1973 63.5403 14.8487 65.8113 14.8487C67.8233 14.8487 69.148 13.6625 69.5953 12.2003L67.91 11.6675C67.6351 12.4932 67.0156 13.1297 65.8113 13.1297C64.5733 13.1297 63.5752 12.2183 63.5234 10.9454H69.6471C69.664 10.9105 69.6989 10.6356 69.6989 10.3078ZM63.5752 9.48316C63.6439 8.58871 64.366 7.62555 65.6221 7.62555C66.9987 7.62555 67.652 8.5031 67.6858 9.48316H63.5752Z" fill="white"/>
<path d="M58.6548 11.9613V8.72937V8.00615H60.0798H60.4223V6.20373H60.0798H58.6548V3.32324H56.8175H56.6428V5.62471V6.20373H53.1169V3.32324H51.2795H51.1049V5.62471V6.20373H49.2236V8.08501H51.1049V8.72937V9.82434V12.2937C51.1049 13.8854 52.085 14.8306 53.6598 14.8306C54.3943 14.8306 54.7796 14.6909 54.9024 14.6379V12.9583C54.8145 12.9763 54.4822 13.0281 54.2028 13.0281C53.4503 13.0281 53.118 12.7127 53.118 11.9613V8.72937V8.00615H56.644V8.72937V9.82434V12.2937C56.644 13.8854 57.624 14.8306 59.1989 14.8306C59.9334 14.8306 60.3186 14.6909 60.4414 14.6379V12.9583C60.3536 12.9763 60.0212 13.0281 59.7419 13.0281C58.9882 13.0281 58.6548 12.7127 58.6548 11.9613Z" fill="white"/>
</svg>
