<svg width="157" height="123" viewBox="0 0 157 123" fill="none" xmlns="http://www.w3.org/2000/svg">
<path d="M148.039 95.7148L156.031 105.582L138.024 122.208C138.024 122.208 135.902 119.889 137.284 117.521C137.974 116.288 138.616 114.117 138.764 111.749C138.764 111.601 138.764 111.403 138.813 111.255C138.862 110.663 138.862 110.071 138.813 109.479C138.813 109.331 138.764 109.134 138.764 108.986C138.616 107.654 138.27 106.371 137.678 105.286L148.039 95.7148Z" fill="#030047"/>
<path d="M143.451 108.837C141.922 109.035 140.343 109.281 138.813 109.528C138.813 109.38 138.764 109.183 138.764 109.035C140.294 108.837 141.823 108.591 143.352 108.393C143.648 108.344 143.747 108.788 143.451 108.837Z" fill="white"/>
<path d="M143.007 111.601C141.626 111.65 140.195 111.699 138.813 111.749C138.813 111.601 138.813 111.403 138.863 111.255C140.244 111.206 141.675 111.157 143.056 111.107C143.352 111.107 143.303 111.601 143.007 111.601Z" fill="white"/>
<path d="M113.554 108.049L112.715 120.728H88.1953C88.1953 120.728 88.1953 117.62 90.8101 116.781C92.1421 116.386 94.1155 115.153 95.8423 113.574C95.941 113.476 96.0889 113.377 96.1876 113.229C96.5823 112.834 97.0263 112.39 97.3717 111.946C97.4703 111.798 97.569 111.7 97.6677 111.552C98.457 110.466 99.0984 109.282 99.3451 108.098H113.554V108.049Z" fill="#030047"/>
<path d="M139.751 78.447C137.234 69.5666 133.14 44.751 133.14 44.751L118.98 48.0071C118.586 46.5764 118.29 45.6884 118.29 45.6884L103.982 51.1646C103.982 62.709 97.5688 108.689 97.5688 108.689L116.119 111.304C116.119 111.304 118.24 91.2248 119.622 75.8815C124.851 93.7409 133.682 106.765 137.234 108.986L150.752 97.8851C150.752 97.8358 142.217 87.3273 139.751 78.447Z" fill="white"/>
<path d="M116.464 111.699L97.125 108.986L97.1743 108.64C97.2237 108.196 103.588 62.5118 103.588 51.1647V50.918L118.487 45.1952L118.586 45.5898C118.586 45.5898 118.833 46.3792 119.178 47.6126L133.386 44.3564L133.436 44.7511C133.485 44.9978 137.58 69.6654 140.047 78.4471C142.513 87.1301 150.95 97.5892 150.999 97.6879L151.246 97.9839L137.235 109.479L136.988 109.331C133.584 107.259 125.147 95.0731 119.77 77.8551C118.389 92.7543 116.464 111.206 116.415 111.403L116.464 111.699ZM97.9637 108.344L115.774 110.811C116.07 107.95 117.944 89.7943 119.227 75.783L119.425 73.8589L119.967 75.7337C125.147 93.3464 133.633 105.976 137.185 108.443L150.21 97.7372C148.828 95.9612 141.576 86.5381 139.307 78.4965C136.988 70.3068 133.288 48.3033 132.745 45.1458L118.635 48.3526L118.537 48.0072C118.29 47.1192 118.092 46.4779 117.994 46.0832L104.328 51.4114C104.229 62.6598 98.5557 104.003 97.9637 108.344Z" fill="#030047"/>
<path d="M129.242 48.5004C129.094 48.5004 128.946 48.4017 128.897 48.2537C128.7 47.8097 128.502 47.3657 128.305 46.9217C128.206 46.7244 128.305 46.527 128.502 46.4284C128.7 46.3297 128.897 46.4283 128.996 46.6257C129.193 47.0697 129.39 47.5137 129.588 48.0071C129.686 48.2044 129.588 48.4017 129.39 48.5004C129.341 48.4511 129.292 48.5004 129.242 48.5004Z" fill="#030047"/>
<path d="M143.303 96.3064C143.155 96.3064 143.056 96.257 142.957 96.109C142.464 95.2703 141.971 94.333 141.477 93.3463C141.379 93.1489 141.477 92.9516 141.625 92.8529C141.823 92.7543 142.02 92.8529 142.119 93.0009C142.612 93.9876 143.105 94.8757 143.599 95.7144C143.698 95.9117 143.648 96.109 143.451 96.2077C143.402 96.2571 143.352 96.3064 143.303 96.3064ZM140.441 90.7315C140.293 90.7315 140.145 90.6328 140.096 90.5342C139.652 89.5968 139.257 88.6594 138.813 87.6727C138.715 87.4754 138.813 87.278 139.011 87.1794C139.208 87.0807 139.405 87.1794 139.504 87.3767C139.899 88.3634 140.343 89.3008 140.737 90.2382C140.836 90.4355 140.737 90.6328 140.54 90.7315C140.54 90.6822 140.491 90.7315 140.441 90.7315ZM138.024 84.9593C137.876 84.9593 137.728 84.8606 137.679 84.7126C137.333 83.7752 137.037 82.7885 136.692 81.7032C136.643 81.5058 136.741 81.3085 136.939 81.2591C137.136 81.2098 137.333 81.3085 137.383 81.5058C137.679 82.5419 138.024 83.5779 138.32 84.4659C138.369 84.6633 138.271 84.8606 138.123 84.9593C138.123 84.9099 138.073 84.9593 138.024 84.9593ZM136.297 78.9404C136.149 78.9404 136.001 78.8417 135.952 78.6444C135.705 77.707 135.508 76.671 135.261 75.5856C135.212 75.3882 135.36 75.1909 135.557 75.1415C135.755 75.0922 135.952 75.2402 136.001 75.4376C136.248 76.523 136.445 77.559 136.692 78.4964C136.741 78.6937 136.593 78.891 136.396 78.9404C136.347 78.9404 136.297 78.9404 136.297 78.9404ZM135.015 72.7735C134.817 72.7735 134.669 72.6255 134.669 72.4775C134.472 71.4414 134.274 70.4547 134.126 69.4187C134.077 69.2213 134.225 69.024 134.422 68.9746C134.62 68.9253 134.817 69.0733 134.867 69.2707C135.064 70.3067 135.212 71.3428 135.409 72.3295C135.459 72.5268 135.311 72.7241 135.113 72.7735C135.064 72.7735 135.064 72.7735 135.015 72.7735ZM133.929 66.6559C133.732 66.6559 133.584 66.5079 133.584 66.3599C133.386 65.3238 133.189 64.2878 133.041 63.3011C132.992 63.1037 133.14 62.9064 133.337 62.8571C133.534 62.8077 133.732 62.9557 133.781 63.1531C133.978 64.1891 134.176 65.2252 134.324 66.2612C134.373 66.4585 134.225 66.6559 134.028 66.7052C133.929 66.6066 133.929 66.6559 133.929 66.6559ZM132.745 60.489C132.597 60.489 132.4 60.3903 132.4 60.193C132.153 59.1076 131.956 58.1209 131.709 57.1342C131.66 56.9368 131.808 56.7395 132.005 56.6902C132.202 56.6408 132.4 56.7888 132.449 56.9862C132.696 57.9729 132.893 58.9596 133.14 60.045C133.189 60.2423 133.041 60.4397 132.844 60.489C132.794 60.489 132.745 60.489 132.745 60.489ZM131.265 54.4207C131.117 54.4207 130.969 54.3221 130.92 54.1741C130.624 53.138 130.328 52.1513 129.982 51.2139C129.933 51.0166 130.032 50.8193 130.229 50.7206C130.426 50.6712 130.624 50.7699 130.722 50.9673C131.018 51.9046 131.364 52.9407 131.66 53.9767C131.709 54.1741 131.61 54.3714 131.413 54.4207C131.364 54.3714 131.314 54.4207 131.265 54.4207Z" fill="#030047"/>
<path d="M145.819 100.105C145.721 100.105 145.622 100.056 145.523 100.006C145.523 100.006 145.178 99.6117 144.586 98.773C144.487 98.625 144.487 98.3783 144.684 98.2797C144.832 98.181 145.079 98.181 145.178 98.3783C145.721 99.1677 146.017 99.513 146.066 99.513C146.214 99.661 146.165 99.9077 146.017 100.056C146.017 100.056 145.918 100.105 145.819 100.105Z" fill="#030047"/>
<path d="M101.27 114.61C99.9868 113.722 98.7041 112.833 97.4214 111.945C97.5201 111.797 97.6187 111.699 97.7174 111.551C99.0001 112.439 100.283 113.327 101.516 114.166C101.763 114.363 101.516 114.758 101.27 114.61Z" fill="white"/>
<path d="M99.0491 116.288C98.013 115.35 96.9277 114.462 95.8423 113.525C95.941 113.426 96.089 113.328 96.1876 113.18C97.2237 114.117 98.309 115.005 99.3944 115.893C99.6411 116.189 99.2958 116.534 99.0491 116.288Z" fill="white"/>
<path d="M119.276 72.5267C119.128 72.5267 118.98 72.4281 118.931 72.28C117.895 69.7639 116.711 59.1075 116.464 57.1835C115.971 57.1341 114.738 56.9368 112.517 56.4928C112.32 56.4434 112.172 56.2461 112.221 56.0488C112.271 55.8514 112.468 55.7034 112.666 55.7527C115.675 56.3447 116.81 56.4928 116.81 56.4928L117.106 56.5421L117.155 56.8381C117.155 56.9861 118.536 69.4186 119.572 72.0334C119.671 72.2307 119.572 72.4281 119.375 72.5267C119.375 72.5267 119.326 72.5267 119.276 72.5267Z" fill="#030047"/>
<path d="M51.2927 39.719C51.1447 39.719 50.9967 39.6203 50.9474 39.4723L48.5299 33.6014C48.4312 33.4041 48.5299 33.2067 48.7273 33.108C48.9246 33.0094 49.1219 33.108 49.2206 33.3054L51.638 39.1763C51.7367 39.3736 51.638 39.571 51.4407 39.6696C51.3914 39.719 51.342 39.719 51.2927 39.719Z" fill="#030047"/>
<path d="M56.029 38.7324C55.8316 38.7324 55.6836 38.5844 55.6836 38.387L55.0423 33.5029C54.9929 33.3055 55.141 33.1082 55.3383 33.1082C55.5356 33.0589 55.733 33.2069 55.733 33.4042L56.3743 38.2884C56.4237 38.5351 56.2757 38.6831 56.029 38.7324Z" fill="#030047"/>
<path d="M61.6037 104.99C61.357 104.99 61.209 104.793 61.209 104.595L61.7517 96.0602C61.7517 95.8629 61.949 95.7148 62.1464 95.7148C62.3437 95.7148 62.4917 95.9122 62.4917 96.1095L61.949 104.645C61.9983 104.842 61.801 104.99 61.6037 104.99Z" fill="#030047"/>
<path d="M72.0627 100.698C71.9147 100.698 71.8161 100.648 71.7174 100.5L68.9053 95.5173C68.8066 95.32 68.856 95.1226 69.0533 95.0239C69.2506 94.9253 69.448 94.9746 69.5466 95.1719L72.3588 100.155C72.4574 100.352 72.4081 100.549 72.2108 100.648C72.1614 100.697 72.1121 100.698 72.0627 100.698Z" fill="#030047"/>
<path d="M83.7061 88.8074H5.46033C1.80952 88.8074 -0.0158851 84.3672 2.59889 81.8017L25.8851 58.7622C26.6745 58.0222 27.6612 57.5781 28.7466 57.5781H106.992C110.643 57.5781 112.469 62.0183 109.854 64.5837L86.5675 87.6233C85.8275 88.4127 84.7915 88.8074 83.7061 88.8074Z" fill="white"/>
<path d="M83.7059 89.2017H5.46011C3.6347 89.2017 2.05598 88.1657 1.31595 86.4389C0.625252 84.7122 0.970599 82.8868 2.30265 81.5547L25.5889 58.5152C26.4276 57.6765 27.5623 57.2324 28.7464 57.2324H106.992C108.818 57.2324 110.396 58.2685 111.136 59.9952C111.827 61.722 111.482 63.5473 110.15 64.8794L86.8633 87.919C86.0246 88.7577 84.8899 89.2017 83.7059 89.2017ZM28.7464 57.9725C27.7597 57.9725 26.8223 58.3671 26.1316 59.0578L2.84534 82.0974C1.75996 83.1828 1.41462 84.7122 2.00664 86.1429C2.59866 87.5736 3.93071 88.4617 5.46011 88.4617H83.7059C84.6926 88.4617 85.6299 88.067 86.3206 87.3763L109.607 64.3367C110.692 63.2513 111.038 61.7219 110.446 60.2912C109.854 58.8605 108.522 57.9725 106.992 57.9725H28.7464Z" fill="#030047"/>
<path d="M77.4895 83.2324H7.97607L32.397 59.1074H101.91L77.4895 83.2324Z" fill="#030047"/>
<path d="M39.2546 73.069H27.3154L31.5089 68.9248H43.4481L39.2546 73.069Z" fill="white"/>
<path d="M52.2789 80.8144H41.7212L45.4213 77.1143H56.0284L52.2789 80.8144Z" fill="white"/>
<path d="M34.1239 80.2719H25.5396L29.289 76.6211H37.824L34.1239 80.2719Z" fill="white"/>
<path d="M68.6588 64.4852C61.4559 64.4852 55.1903 62.6105 52.9702 59.7984C52.8222 59.6504 52.8716 59.4037 53.0196 59.2557C53.1676 59.1077 53.4142 59.157 53.5622 59.305C55.585 61.8704 61.8012 63.6959 68.6588 63.6959C77.1939 63.6959 84.3968 60.8837 84.3968 57.5783C84.3968 57.3809 84.5448 57.1836 84.7915 57.1836C85.0382 57.1836 85.1862 57.3316 85.1862 57.5783C85.1368 61.4758 77.8845 64.4852 68.6588 64.4852Z" fill="#00D37F"/>
<path d="M54.5981 54.7652C54.4995 54.7652 54.3514 54.7159 54.3021 54.6172C54.2034 54.4692 54.2035 54.2225 54.4008 54.1238C56.8182 52.4464 60.8637 51.2624 65.5506 50.917C66.5373 50.8184 67.5733 50.8184 68.6093 50.8184C68.8067 50.8184 69.004 50.9664 69.004 51.213C69.004 51.4597 68.856 51.6077 68.6093 51.6077C67.5733 51.6077 66.5866 51.6571 65.5999 51.7064C61.0117 52.0517 57.1142 53.1865 54.7955 54.8145C54.7461 54.7652 54.6968 54.7652 54.5981 54.7652Z" fill="#00D37F"/>
<path d="M82.0284 66.3594C81.8804 66.3594 81.7324 66.2607 81.683 66.0634C81.6337 65.866 81.7324 65.6687 81.9297 65.6193C83.9031 65.126 85.6792 64.4846 87.2086 63.7939C91.0074 62.0672 93.0795 59.8471 93.0795 57.5777C93.0795 52.2988 82.1271 48.0066 68.6585 48.0066C61.8503 48.0066 55.486 49.092 50.7992 51.0654C50.6018 51.1641 50.4045 51.0654 50.3058 50.8681C50.2071 50.6708 50.3058 50.4734 50.5031 50.3747C55.2887 48.352 61.7022 47.2666 68.6092 47.2666C82.7191 47.2666 93.7702 51.8055 93.7702 57.5777C93.7702 60.1431 91.5501 62.5606 87.4553 64.4353C85.8765 65.1753 84.0511 65.7674 82.0777 66.31C82.0777 66.3594 82.0284 66.3594 82.0284 66.3594Z" fill="#00D37F"/>
<path d="M68.6586 67.9387C67.2278 67.9387 65.8464 67.8893 64.4651 67.7907C52.3286 66.952 43.4976 62.6598 43.4976 57.5783C43.4976 57.3809 43.6456 57.1836 43.8922 57.1836C44.1389 57.1836 44.2869 57.3316 44.2869 57.5783C44.2869 62.1665 53.0193 66.2613 64.5637 67.0507C65.9451 67.1493 67.3265 67.1987 68.7079 67.1987C68.9052 67.1987 69.1026 67.3467 69.1026 67.5933C69.1026 67.84 68.8559 67.9387 68.6586 67.9387Z" fill="#00D37F"/>
<path d="M73.0001 67.7899C72.8028 67.7899 72.6548 67.6419 72.6548 67.4446C72.6548 67.2473 72.8028 67.0499 73.0001 67.0499C75.1215 66.9019 77.243 66.6059 79.167 66.2605C79.3644 66.2112 79.5617 66.3592 79.6111 66.5566C79.6604 66.7539 79.5124 66.9512 79.315 67.0006C77.2923 67.3459 75.2202 67.6419 73.0001 67.7899C73.0495 67.7899 73.0001 67.7899 73.0001 67.7899Z" fill="#00D37F"/>
<path d="M77.4401 70.8987C77.2427 70.8987 77.0947 70.7506 77.0947 70.5533C77.0947 70.356 77.2427 70.1586 77.4401 70.1586C88.9352 68.8759 97.8155 65.2744 100.677 60.6369C101.269 59.6502 101.565 58.6635 101.565 57.6274C101.565 55.802 100.874 54.174 99.5423 53.0886C99.3943 52.9406 99.3449 52.7433 99.4929 52.5459C99.6409 52.3979 99.8383 52.3486 100.036 52.4966C101.516 53.73 102.354 55.5554 102.354 57.6274C102.354 58.8115 102.009 59.9462 101.318 61.0316C98.3089 65.8171 89.1819 69.5666 77.4401 70.8987C77.4401 70.8493 77.4401 70.8987 77.4401 70.8987Z" fill="#00D37F"/>
<path d="M37.1826 53.631C37.084 53.631 37.0346 53.5817 36.936 53.5324C36.788 53.3843 36.788 53.187 36.8866 52.9897C39.1561 50.3749 43.2509 48.1548 48.7271 46.4774C48.9244 46.4281 49.1218 46.5268 49.1711 46.7241C49.2205 46.9214 49.1218 47.1188 48.9244 47.1681C43.5469 48.7469 39.6001 50.9176 37.4293 53.4337C37.38 53.5817 37.2813 53.631 37.1826 53.631Z" fill="#00D37F"/>
<path d="M50.2075 69.1222C50.1581 69.1222 50.1581 69.1222 50.1088 69.1222C40.6364 66.6061 35.0122 62.314 35.0122 57.6271C35.0122 57.4298 35.1602 57.2324 35.4069 57.2324C35.6536 57.2324 35.8016 57.3804 35.8016 57.6271C35.8016 61.9193 41.2284 65.9648 50.3555 68.3822C50.5528 68.4316 50.6515 68.6289 50.6022 68.8262C50.5035 69.0236 50.3555 69.1222 50.2075 69.1222Z" fill="#00D37F"/>
<path d="M68.6588 60.8335C73.0729 60.8335 76.6511 59.3978 76.6511 57.6267C76.6511 55.8557 73.0729 54.4199 68.6588 54.4199C64.2448 54.4199 60.6665 55.8557 60.6665 57.6267C60.6665 59.3978 64.2448 60.8335 68.6588 60.8335Z" fill="#00D37F"/>
<path d="M108.669 15.0508C99.2464 18.0602 94.8555 30.1474 92.6354 33.4035C87.1099 41.3958 73.2467 42.4319 69.7932 45.4907C66.5371 48.3521 68.6585 50.0295 68.6585 50.0295C68.6585 50.0295 68.2638 51.7069 69.4972 52.4963C69.4972 52.4963 66.8331 55.3084 68.1158 56.5418C69.3492 57.7752 73.296 52.5456 75.0227 52.2496L75.5161 53.4336C75.3681 54.1737 73.3947 55.8017 74.332 56.7391C75.2201 57.7258 78.5255 54.4204 79.4136 53.335C80.3016 52.2496 81.979 52.4963 83.7057 50.8682C85.4325 49.2402 93.3261 49.7335 98.6543 44.208C103.933 38.6824 111.926 22.1057 111.926 22.1057L108.669 15.0508Z" fill="white"/>
<path d="M74.6778 57.2326C74.3325 57.2326 74.0858 57.0846 73.9378 56.9366C73.0991 56.0486 73.9378 54.9139 74.5298 54.0752C74.7272 53.8285 74.9245 53.5325 75.0232 53.3352L74.7272 52.5951C74.0858 52.8912 73.0991 53.7792 72.2111 54.5686C70.435 56.1473 68.7576 57.6767 67.7709 56.69C66.5375 55.4566 68.1656 53.2858 68.9056 52.4471C68.1162 51.6577 68.1656 50.523 68.2149 50.079C67.9682 49.8323 67.6229 49.2897 67.5735 48.5003C67.5735 47.4149 68.2149 46.2802 69.4976 45.1455C70.7803 44.0108 73.4444 43.1721 76.5032 42.1361C81.9794 40.36 88.837 38.1399 92.2905 33.1077C92.7345 32.4663 93.2772 31.381 93.9679 30.1969C96.5827 25.3127 100.924 17.0737 108.522 14.6563L108.818 14.5576L112.173 22.0073L112.123 22.1553C111.778 22.846 104.082 38.8799 98.8028 44.3561C95.3 48.007 90.7118 49.043 87.4063 49.8323C85.7783 50.227 84.3969 50.5231 83.8542 51.0164C82.8675 51.9538 81.8808 52.2991 81.0914 52.5951C80.4501 52.8418 79.9567 53.0391 79.6114 53.4338C79.6114 53.5818 76.4046 57.1833 74.6778 57.2326C74.7272 57.2326 74.6778 57.2326 74.6778 57.2326ZM75.2205 51.7564L75.8619 53.2858V53.3845C75.8125 53.6805 75.5165 54.0752 75.2205 54.4699C74.6285 55.3086 74.1845 55.9993 74.5298 56.3939C74.5298 56.3939 74.5791 56.4433 74.7272 56.4433C75.7139 56.4433 78.0326 54.2232 79.0687 52.9898C79.562 52.4471 80.2034 52.2004 80.8941 51.9044C81.6341 51.6084 82.5221 51.3124 83.3608 50.4737C84.0515 49.8323 85.3836 49.5363 87.2583 49.0923C90.5145 48.3523 94.9546 47.3162 98.3094 43.8134C103.243 38.6826 110.594 23.6353 111.433 21.9579L108.522 15.4456C101.368 17.9124 97.224 25.8061 94.7079 30.5423C94.0172 31.825 93.4746 32.861 93.0305 33.5517C89.4291 38.7812 82.4235 41.0507 76.8486 42.8761C73.8885 43.8628 71.323 44.7015 70.139 45.7375C69.0043 46.7242 68.4122 47.6616 68.4616 48.5003C68.4616 49.2403 69.0043 49.6843 69.0043 49.6843L69.2016 49.8323L69.1523 50.079C69.1523 50.079 68.8563 51.5098 69.7936 52.1511L70.1883 52.3978L69.8923 52.7431C69.2509 53.3845 67.6722 55.4566 68.4616 56.2459C68.9549 56.7393 70.731 55.1112 71.8657 54.0752C73.0498 52.9898 74.1845 52.0031 75.0232 51.8551L75.2205 51.7564Z" fill="#030047"/>
<path d="M101.121 37.2028C101.713 37.5975 102.305 37.9922 102.848 38.3375C107.337 31.3319 111.778 22.0076 111.778 22.0076L108.669 15.002C100.282 17.6661 95.8916 27.5331 93.4741 31.9733C96.0889 33.6013 98.605 35.5254 101.121 37.2028Z" fill="#00D37F"/>
<path d="M102.996 38.8799L102.7 38.6825C102.108 38.2879 101.565 37.8932 100.973 37.5478C99.8879 36.8571 98.8518 36.1171 97.8158 35.3771C96.3851 34.341 94.8557 33.305 93.3263 32.3676L93.0303 32.1703L93.1783 31.8743C93.425 31.3809 93.721 30.8876 94.017 30.2955C96.6317 25.4113 100.973 17.1724 108.571 14.7549L108.867 14.6562L112.222 22.1059L112.172 22.2539C112.123 22.3526 107.634 31.6769 103.193 38.5839L102.996 38.8799ZM93.9676 31.8743C95.3984 32.7623 96.8291 33.749 98.1611 34.7357C99.1972 35.4757 100.283 36.2158 101.319 36.9065C101.812 37.2025 102.256 37.5478 102.749 37.8438C106.795 31.4796 110.791 23.2899 111.383 22.0565L108.472 15.5443C101.319 18.011 97.1744 25.9047 94.6583 30.6409C94.4117 31.0849 94.2143 31.4796 93.9676 31.8743Z" fill="#00D37F"/>
<path d="M72.2602 49.8815C71.1748 50.3748 70.2868 51.1149 69.4974 52.0029C69.3001 52.2496 69.6454 52.5949 69.8427 52.3483C70.5828 51.4602 71.4708 50.7695 72.5068 50.2762C72.8029 50.1775 72.5562 49.7335 72.2602 49.8815Z" fill="#030047"/>
<path d="M71.175 47.6614C70.139 47.9575 69.3003 48.5988 68.7083 49.4868C68.5603 49.7335 68.9549 49.9802 69.1523 49.7335C69.6456 48.9441 70.435 48.3521 71.323 48.1054C71.5697 48.0561 71.471 47.5628 71.175 47.6614Z" fill="#030047"/>
<path d="M108.67 15.0512C103.687 16.7286 100.036 19.3927 101.121 33.6999C102.207 48.0072 102.009 52.398 102.009 52.398L134.077 47.8592C134.077 47.8592 124.753 9.67366 108.67 15.0512Z" fill="#00D37F"/>
<path d="M101.664 52.8421V52.398C101.664 52.3487 101.812 47.8592 100.776 33.7493C99.6904 18.9487 103.637 16.3833 108.571 14.7059L108.669 15.0512L108.571 14.7059C111.333 13.7685 114.096 14.0645 116.76 15.4952C127.959 21.6621 134.225 46.6751 134.472 47.7605L134.57 48.1552L101.664 52.8421ZM111.778 14.9032C110.791 14.9032 109.804 15.0512 108.817 15.3966C104.032 17.0246 100.43 19.3927 101.516 33.6999C102.404 45.4417 102.453 50.5726 102.404 52.0033L133.633 47.5632C132.794 44.307 126.578 21.7608 116.415 16.1859C114.886 15.3472 113.356 14.9032 111.778 14.9032Z" fill="#00D37F"/>
<path d="M101.269 36.3151C101.072 36.3151 100.924 36.167 100.924 35.9697L100.628 27.5333C100.628 27.336 100.776 27.1387 100.973 27.1387C101.171 27.1387 101.368 27.2867 101.368 27.484L101.664 35.9203C101.664 36.167 101.516 36.3151 101.269 36.3151C101.319 36.3151 101.269 36.3151 101.269 36.3151Z" fill="#030047"/>
<path d="M138.37 35.1303C133.288 22.3031 120.708 11.252 108.67 15.0508C108.67 15.0508 120.757 27.9273 126.085 34.9823C129.884 40.0145 132.992 50.2762 134.67 56.2951C131.413 59.8473 132.647 66.6555 133.338 66.8529C135.311 67.4942 135.558 63.1527 135.558 63.1527L136.298 62.758C136.594 64.5341 136.89 66.7542 137.679 67.3956C138.863 68.3329 140.047 66.9515 140.047 66.9515C141.478 67.5929 142.909 66.5569 142.909 66.5569C149.618 66.1128 143.451 47.9574 138.37 35.1303Z" fill="white"/>
<path d="M138.567 68.1356C138.222 68.1356 137.827 68.0369 137.481 67.7409C136.643 67.0502 136.297 65.1262 136.051 63.3994L135.952 63.4488C135.903 64.1888 135.607 66.3595 134.521 67.0996C134.127 67.3462 133.683 67.3956 133.239 67.2476C133.041 67.1982 132.745 66.9516 132.499 65.9155C132.055 64.2381 131.561 59.3046 134.275 56.1965C131.413 45.9347 128.601 38.8798 125.838 35.229C120.609 28.2727 108.571 15.4455 108.472 15.3469L108.078 14.9028L108.62 14.7055C120.905 10.808 133.584 21.9578 138.764 34.9823C145.424 51.707 147.645 61.9687 145.424 65.5208C144.882 66.3595 144.092 66.8529 143.056 66.9516C142.711 67.1489 141.478 67.8396 140.195 67.3956C139.751 67.7903 139.208 68.1356 138.567 68.1356ZM136.593 62.2154L136.692 63.0047C136.939 64.5341 137.235 66.6556 137.925 67.1982C138.814 67.8889 139.751 66.8529 139.751 66.8036L139.948 66.6062L140.195 66.7049C141.379 67.2476 142.662 66.3595 142.662 66.3595L142.76 66.3102H142.859C143.698 66.2609 144.339 65.8662 144.734 65.1755C146.164 62.8568 146.164 55.8018 138.024 35.3277C133.041 22.7965 121.053 12.0414 109.36 15.2975C111.531 17.6163 121.694 28.5687 126.381 34.785C129.193 38.5344 132.104 45.7374 135.015 56.1965L135.064 56.3938L134.916 56.5418C131.907 59.798 132.893 65.8662 133.485 66.5569C133.732 66.6062 133.88 66.6062 134.077 66.4582C134.867 65.9155 135.163 63.8434 135.163 63.1527V62.9554L136.593 62.2154Z" fill="#030047"/>
<path d="M127.861 29.8508C129.637 28.5187 131.265 27.088 132.942 25.6573C126.726 17.517 117.55 12.2381 108.669 15.0502C108.669 15.0502 118.29 25.2626 124.111 32.4655C125.394 31.6269 126.627 30.7388 127.861 29.8508Z" fill="#00D37F"/>
<path d="M124.062 33.0087L123.865 32.762C118.093 25.6577 108.522 15.4453 108.423 15.3466L108.028 14.9026L108.571 14.7052C116.711 12.0905 126.184 16.2346 133.239 25.411L133.436 25.707L133.189 25.9537C132.844 26.2497 132.499 26.5457 132.104 26.8417C130.821 27.9765 129.44 29.1112 128.058 30.1472C126.973 30.9859 125.789 31.8246 124.309 32.8113L124.062 33.0087ZM109.36 15.2479C111.235 17.2707 119.079 25.7564 124.21 32.0219C125.542 31.0846 126.628 30.3445 127.664 29.5552C129.045 28.5191 130.377 27.3844 131.66 26.299C131.907 26.0524 132.203 25.855 132.449 25.6084C127.17 18.8494 118.438 12.7318 109.36 15.2479Z" fill="#00D37F"/>
<path d="M139.702 61.3764C139.603 61.0804 139.11 61.1791 139.208 61.5244C139.702 63.1525 139.85 64.7806 139.603 66.458C139.554 66.754 140.047 66.754 140.096 66.458C140.392 64.7312 140.244 63.0538 139.702 61.3764Z" fill="#030047"/>
<path d="M142.711 60.6362C142.612 60.3402 142.168 60.4389 142.218 60.7842C142.662 62.4616 142.76 64.1884 142.612 65.9151C142.563 66.2111 143.056 66.2111 143.106 65.9151C143.303 64.0897 143.155 62.3629 142.711 60.6362Z" fill="#030047"/>
<path d="M122.73 31.1837C122.631 31.1837 122.483 31.1344 122.434 31.0357C119.819 27.5823 118.684 25.9048 118.635 25.9048C118.536 25.7568 118.536 25.5102 118.734 25.4115C118.882 25.3128 119.128 25.3128 119.227 25.5102C119.227 25.5102 120.411 27.1876 122.977 30.641C123.125 30.7891 123.075 31.0357 122.927 31.1837C122.878 31.1344 122.829 31.1837 122.73 31.1837Z" fill="#030047"/>
<path d="M110.544 6.7623C110.495 5.03556 108.768 3.99951 106.844 4.93688C106.548 5.08489 106.301 5.28224 106.005 5.52891C106.005 5.52891 106.005 5.52893 105.956 5.47959C103.243 2.61814 98.9504 2.22346 96.3849 4.64088C93.8195 7.05831 94.4115 10.9558 96.5823 14.2613C98.605 17.2214 102.799 18.8001 106.153 15.1C107.239 13.8666 107.88 12.2385 107.929 10.5611C109.755 10.0184 110.593 8.29169 110.544 6.7623Z" fill="white"/>
<path d="M101.812 17.6655C101.664 17.6655 101.565 17.6655 101.417 17.6655C99.4439 17.5175 97.5692 16.3334 96.3358 14.508C93.7704 10.7092 93.7211 6.76238 96.1878 4.44362C98.8519 1.92752 103.243 2.22353 106.055 5.08498C106.252 4.93697 106.499 4.78897 106.696 4.6903C107.732 4.14761 108.818 4.14762 109.656 4.64098C110.396 5.08499 110.89 5.87434 110.89 6.81171C110.939 8.29177 110.15 10.1665 108.275 10.9066C108.176 12.584 107.535 14.1627 106.45 15.3961C104.822 17.2215 103.095 17.6655 101.812 17.6655ZM100.579 3.45692C99.1479 3.45692 97.7665 3.95027 96.6812 4.93698C94.0171 7.45307 95.1518 11.3999 96.9278 14.064C98.0626 15.7414 99.74 16.7774 101.467 16.8761C103.095 16.9748 104.624 16.2841 105.907 14.8534C106.943 13.7187 107.535 12.1893 107.584 10.5612V10.3145L107.831 10.2159C109.459 9.67317 110.199 8.0451 110.15 6.76239C110.15 6.12103 109.804 5.52902 109.262 5.23301C108.62 4.83832 107.782 4.88765 106.992 5.28233C106.746 5.43033 106.499 5.57833 106.203 5.825L105.956 6.07168L105.71 5.825C104.328 4.24628 102.404 3.45692 100.579 3.45692Z" fill="#030047"/>
<path d="M100.831 11.0028C100.943 10.7541 100.831 10.4622 100.583 10.3509C100.334 10.2395 100.042 10.3508 99.9306 10.5995C99.8193 10.8482 99.9306 11.1401 100.179 11.2514C100.428 11.3628 100.72 11.2515 100.831 11.0028Z" fill="#030047"/>
<path d="M99.1969 14.8043C98.5556 13.9163 98.0622 12.9296 97.6675 11.8936C97.5689 11.5976 98.0129 11.4002 98.1116 11.6962C98.4569 12.6829 98.9503 13.6203 99.5423 14.5083C99.789 14.755 99.3943 15.051 99.1969 14.8043Z" fill="#030047"/>
<path d="M95.7438 8.78521C97.2238 8.24252 101.763 4.2957 103.489 7.15715C103.933 7.89718 103.933 8.48919 104.772 8.29185C105.561 7.94651 105.413 6.95982 105.413 6.95982C106.006 6.12112 106.203 5.28241 106.844 4.93706C108.62 2.07561 104.229 -1.47653 101.763 0.644884C101.763 0.644884 96.2864 -0.687163 94.7077 2.71697C91.8956 3.85168 90.8596 6.02243 91.4516 8.04518C92.537 11.4986 95.7438 8.78521 95.7438 8.78521Z" fill="#030047"/>
<path d="M106.499 8.48958C106.45 7.30554 107.19 6.26949 108.324 5.92414C108.62 5.82547 108.818 6.31884 108.522 6.36817C107.634 6.61485 106.992 7.45354 107.042 8.39091C107.042 8.78559 106.548 8.83493 106.499 8.48958Z" fill="#030047"/>
<path d="M69.2014 80.6171C69.1027 80.6171 69.004 80.5677 68.9547 80.5184L62.7384 74.3021C62.5904 74.1541 62.5904 73.9074 62.7384 73.7594C62.8865 73.6114 63.1331 73.6114 63.2811 73.7594L69.4974 79.9757C69.6454 80.1237 69.6454 80.3704 69.4974 80.5184C69.3987 80.5677 69.3 80.6171 69.2014 80.6171Z" fill="#00D37F"/>
<path d="M63.0344 80.6171C62.9358 80.6171 62.8371 80.5677 62.7878 80.5184C62.6398 80.3704 62.6398 80.1237 62.7878 79.9757L69.004 73.7594C69.152 73.6114 69.3987 73.6114 69.5467 73.7594C69.6947 73.9074 69.6947 74.1541 69.5467 74.3021L63.3304 80.5184C63.1824 80.5677 63.1331 80.6171 63.0344 80.6171Z" fill="#00D37F"/>
</svg>
