<svg width="30" height="30" viewBox="0 0 30 30" fill="none" xmlns="http://www.w3.org/2000/svg">
<g clip-path="url(#clip0_505_48017)">
<path d="M15.1569 10.3675C16.4861 10.3675 17.5736 9.28001 17.5736 7.95085C17.5736 6.62168 16.4861 5.53418 15.1569 5.53418C13.8277 5.53418 12.7402 6.62168 12.7402 7.95085C12.7402 9.28001 13.8277 10.3675 15.1569 10.3675ZM15.1569 12.7842C13.8277 12.7842 12.7402 13.8717 12.7402 15.2008C12.7402 16.53 13.8277 17.6175 15.1569 17.6175C16.4861 17.6175 17.5736 16.53 17.5736 15.2008C17.5736 13.8717 16.4861 12.7842 15.1569 12.7842ZM15.1569 20.0342C13.8277 20.0342 12.7402 21.1217 12.7402 22.4508C12.7402 23.78 13.8277 24.8675 15.1569 24.8675C16.4861 24.8675 17.5736 23.78 17.5736 22.4508C17.5736 21.1217 16.4861 20.0342 15.1569 20.0342Z" fill="white"/>
</g>
<defs>
<clipPath id="clip0_505_48017">
<rect width="29" height="29" fill="white" transform="translate(0.656738 0.700684)"/>
</clipPath>
</defs>
</svg>
