<svg width="24" height="25" viewBox="0 0 24 25" fill="none" xmlns="http://www.w3.org/2000/svg">
<g clip-path="url(#clip0_155_5276)">
<path d="M12 7.89868C14.76 7.89868 17 10.1387 17 12.8987C17 13.5487 16.87 14.1587 16.64 14.7287L19.56 17.6487C21.07 16.3887 22.26 14.7587 22.99 12.8987C21.26 8.50868 16.99 5.39868 11.99 5.39868C10.59 5.39868 9.25 5.64868 8.01 6.09868L10.17 8.25868C10.74 8.02868 11.35 7.89868 12 7.89868ZM2 5.16868L4.28 7.44868L4.74 7.90868C3.08 9.19868 1.78 10.9187 1 12.8987C2.73 17.2887 7 20.3987 12 20.3987C13.55 20.3987 15.03 20.0987 16.38 19.5587L16.8 19.9787L19.73 22.8987L21 21.6287L3.27 3.89868L2 5.16868ZM7.53 10.6987L9.08 12.2487C9.03 12.4587 9 12.6787 9 12.8987C9 14.5587 10.34 15.8987 12 15.8987C12.22 15.8987 12.44 15.8687 12.65 15.8187L14.2 17.3687C13.53 17.6987 12.79 17.8987 12 17.8987C9.24 17.8987 7 15.6587 7 12.8987C7 12.1087 7.2 11.3687 7.53 10.6987V10.6987ZM11.84 9.91868L14.99 13.0687L15.01 12.9087C15.01 11.2487 13.67 9.90868 12.01 9.90868L11.84 9.91868Z" fill="#C6C6CC"/>
</g>
<defs>
<clipPath id="clip0_155_5276">
<rect width="24" height="24" fill="white" transform="translate(0 0.898682)"/>
</clipPath>
</defs>
</svg>
